<?xml version="1.0" encoding="utf-8"?>
<!-- Generator: Adobe Illustrator 27.5.0, SVG Export Plug-In . SVG Version: 6.00 Build 0)  -->
<svg version="1.1" xmlns="http://www.w3.org/2000/svg" xmlns:xlink="http://www.w3.org/1999/xlink" x="0px" y="0px"
	 viewBox="0 0 1800 1122" style="enable-background:new 0 0 1800 1122;" xml:space="preserve">
<g id="Bg">
	<rect x="0" style="fill:#FFFFFF;" width="1800" height="1122"/>
</g>
<g id="Object">
	<g>
		<path style="fill:#B8BABB;" d="M1446.03,362.045c0.879-2.931,3.518-2.052,3.518-2.052s24.475,7.034,47.736,13.644
			c-3.211-8.984-7.845-16.733-10.923-21.348c-0.661,0.361-1.408,0.585-2.214,0.585c-2.568,0-4.65-2.082-4.65-4.65
			c0-0.676,0.151-1.314,0.411-1.894c-1.532-1.19-3.4-2.746-5.174-4.457c-3.176-3.062,0.113-6.691-1.588-9.073
			c-1.701-2.382-3.629-3.856-5.557-6.691c-1.928-2.835-4.423-5.897-6.691-9.866c-2.268-3.969-1.134-10.32-1.134-10.32
			c1.474,7.031,4.877,9.753,4.877,9.753c-1.928-2.155-3.742-10.32-3.742-10.32l1.701-1.701c2.949,1.928,8.959,16.104,8.392,14.176
			c-0.567-1.928-2.722-7.598-3.969-9.186c-1.248-1.588-3.289-6.011-3.289-6.011l2.948-2.268l2.155,3.402c0,0-1.247-3.516-0.794-4.31
			c0.454-0.794,1.701-1.247,1.701-1.247s-0.567-0.794,0.907,1.021c1.474,1.814,2.608,9.413,2.608,9.413
			c1.248-4.196-0.453-10.887-0.453-10.887c1.588,3.516,2.382,6.918,2.155,10.887c-0.227,3.969,3.402,10.434,3.402,10.434
			c0.907,3.742,2.722,8.279,3.402,10.32c0.681,2.041,0.34,3.969,0.227,5.444c-0.113,1.474,0.113,2.382,1.361,4.423
			c0.759,1.242,1.265,3.11,1.545,4.385c2.208,0.361,3.898,2.263,3.898,4.574c0,1.635-0.848,3.066-2.124,3.896
			c6.292,8.132,10.124,15.539,12.389,22.023c16.658,4.731,32.351,9.145,37.544,10.473c12.604,3.224,18.76,6.449,18.76,6.449
			c-4.104,34.589-19.053,94.094-19.053,94.094c-2.931-2.638-29.606-9.087-31.072-9.087c-1.466,0-7.621,1.466-8.794,1.173
			s-2.345,1.466-17.588-1.759c-15.243-3.224-21.398-13.484-21.398-13.484c-4.104-1.172-30.778-9.38-30.778-9.38
			S1445.151,364.976,1446.03,362.045z"/>
		<path style="fill:#B8BABB;" d="M1078.239,555.612c3.434-0.937,2.497-3.434,2.497-3.434l-8.74-4.058c0,0-10.301,4.682-13.422,8.116
			c-3.122,3.434-3.122,1.873-3.122,1.873s-0.625-2.185,1.249-4.682c1.873-2.497,1.873-6.243,2.497-9.053
			c0.624-2.809,2.185-9.989,4.058-9.989c1.873,0,14.047-2.809,17.168-3.434c3.122-0.624,4.682-5.931,7.804-9.989
			c3.122-4.058,15.92-22.163,17.169-23.724c1.248-1.561,5.307-7.492,7.179-8.428c0,0,12.815,16.262,25.985,32.971
			c0.824-11.775-1.018-25.967-11.313-36.716c-9.359-9.772-13.556-16.325-15.275-21.243c-0.112,0.004-0.221,0.017-0.333,0.017
			c-5.172,0-9.365-4.193-9.365-9.365c0-0.596,0.062-1.178,0.168-1.743c-0.914-1.104-1.864-2.337-2.801-3.694
			c-3.38-4.899-2.504-5.746-3.005-10.174c-0.501-4.428-1.002-6.123-0.876-9.138s-0.501-5.935-1.252-8.572
			c-0.751-2.638-0.501-4.993-0.876-7.63c-0.375-2.638-2.003-5.464-2.629-6.877c-0.626-1.413-1.252-3.58-1.627-4.993
			c-0.376-1.413,0.501-4.333,0.501-4.333s0.376,1.413,1.252,5.087c0.876,3.674,1.753,2.732,2.88,3.862
			c1.127,1.13,1.878,2.732,2.128,4.71c0.25,1.978,4.882,13.188,4.006,10.739c-0.876-2.449-1.377-5.746-1.753-8.101
			c-0.376-2.355-2.253-6.029-3.631-8.384c-1.377-2.355-2.253-7.536-1.628-8.29c0.626-0.754,5.008-0.942,5.008-0.942
			s3.005,5.935,3.005,5.464c0-0.471-1.753-5.558-1.753-5.558l1.753-0.189c0,0,2.003-0.188,2.379,1.036
			c0.375,1.225,0.25,13.471,0.25,13.471l1.002,0.471c0.125-0.377,1.002-1.79,0.125-5.84c-0.876-4.051,0.877-8.761,0.877-8.761
			s-0.25,2.073,0.125,5.746c0.376,3.674,1.753,3.862,2.128,6.594c0.271,1.969-0.433,5.739-0.847,7.696
			c0.479-0.902,1.512-2.015,2.725-5.341c1.753-4.804-0.501-8.384-0.501-8.384c1.753,1.79,3.631,1.319,1.252,7.159
			c-2.379,5.841-5.634,21.007,1.127,31.181c1.232,1.854,2.188,3.474,2.937,4.893c3.655,1.276,6.281,4.744,6.281,8.834
			c0,4.246-2.827,7.826-6.7,8.975c1.666,4.503,4.472,9.597,9.198,14.437c11.789,12.077,18.009,22.046,15.746,44.767
			c9.029,11.456,18.123,22.994,23.274,29.526c12.798,16.232,10.301,20.602,8.116,24.972c-2.185,4.37-21.227,40.58-30.591,44.951
			l-16.857-22.163c0,0-8.74,1.873-15.608-0.624c-6.867-2.497-14.671-5.619-18.105-7.18c-3.434-1.561-11.237-4.682-14.359-6.243
			c-3.122-1.561-15.296-16.544-17.169-18.417c-1.873-1.873-3.434-2.185-3.434-2.185S1074.805,556.549,1078.239,555.612z"/>
		<path style="fill:#B8BABB;" d="M1010.801,256.517c1.806-21.066,1.204-24.075,1.204-24.075s10.533-4.213,15.348-3.611
			c0,0,7.223-28.288,8.125-31.899c0.903-3.611,2.407-5.718,3.009-1.806c0,0,26.809,12.84,49.582,24.357
			c16.529-18.188,9.699-29.35,4.969-33.949c-0.571,0.763-1.474,1.264-2.501,1.264c-1.73,0-3.133-1.403-3.133-3.133
			c0-0.118,0.022-0.23,0.035-0.345c-1.615-1.54-3.784-3.508-5.919-4.364c-3.398-1.363-11.111-13.432-9.826-12.75
			c1.286,0.681,2.571,3.115,2.663,3.504s9.55,7.397,9.55,7.397s-1.286-1.168-2.388-2.433c-1.102-1.265-1.836-2.628-2.296-3.893
			c-0.459-1.265-3.031-3.115-4.592-3.991c-1.561-0.876-1.469-3.796-1.469-3.796c0.459,0.195,2.571,1.655,3.49,2.53
			c0.918,0.876,2.204,2.239,2.755,2.823c0.551,0.584,2.571,1.655,2.571,1.655c-1.194-1.071-1.01-1.265-3.49-4.185
			c-2.479-2.92-3.949-3.115-3.857-3.406c0.092-0.292,1.745-2.725,1.745-2.725s2.204,0.097,3.03,0.584
			c0.827,0.487,0.827,2.433,1.653,3.699c0.827,1.265,3.765,5.061,3.765,5.061c-0.092-0.681,0.735-2.628-0.551-3.212
			c-1.286-0.584-3.03-5.548-3.03-5.548s3.673,4.283,4.591,5.743c0.918,1.46,1.194,3.99,1.561,6.229
			c0.367,2.239,1.561,4.38,3.03,6.035c0.622,0.7,0.971,1.62,1.178,2.456c1.202,0.438,2.065,1.58,2.065,2.934
			c0,0.309-0.059,0.601-0.142,0.883c5.649,3.446,6.275,10.862,6.784,15.702c0.321,3.05-4.877,11.493-10.847,19.94
			c15.615,7.918,29.002,15.065,29.973,16.766c2.408,4.213,0.602,5.417,0.602,5.417l-3.31,12.94c0,0-20.464,78.545-21.969,83.359
			c0,0-0.602,2.408-5.116-0.903c-4.514-3.31-45.141-21.968-51.761-26.482c-6.62-4.514-26.482-13.241-26.482-13.241l2.407-10.533
			C1013.811,287.514,1008.996,277.583,1010.801,256.517z"/>
		<path style="fill:#B8BABB;" d="M615.54,302.757c-1.446-3.012-1.085-4.579-1.085-7.471c0-2.892-1.326-6.266-0.964-9.399
			c0.361-3.133-1.325-13.014-1.325-13.014c1.205,1.205,2.531,4.097,3.133,5.905c0.603,1.808,1.567,5.182,1.205,7.953
			c-0.362,2.772,1.566,11.448,1.566,11.448c-1.085-4.218,0-7.23-0.12-9.881c-0.121-2.651-0.603-8.556-1.567-10.845
			c-0.964-2.29-2.169-4.459-2.169-4.459l3.254-1.807c0,0,2.531,0.12,3.133,0.482c0.603,0.362,1.085,3.254,1.205,4.82
			c0.121,1.566,2.29,8.194,2.29,8.194s-0.482-3.013-1.084-5.664c-0.603-2.651-1.326-7.351-1.326-7.351s2.169-0.723,2.049-0.362
			c-0.121,0.362,2.169,4.941,2.41,7.23c0.241,2.29,3.133,4.82,4.338,8.917c1.205,4.097-0.362,15.063-0.362,15.063
			c1.567-2.169,2.772-11.086,2.772-11.086c-0.12,1.687,0.241,7.833-1.566,11.327c-1.808,3.495-1.326,7.712-0.362,11.448
			c0.594,2.302,0.593,5.788,0.505,8.129c1.98,0.496,3.452,2.272,3.452,4.406c0,1.54-0.769,2.895-1.938,3.72
			c0.017,0.036,0.026,0.068,0.044,0.104c2.572,5.461,13.633,17.191,25.352,25.636c8.416,6.064,14.627,16.279,17.882,22.235
			c2.004-9.354,8.798-43.011,9.593-45.552l17.714,5.603l-2.53,2.711l-2.169,13.014c0,0,19.341,2.169,21.148,2.711
			c1.807,0.542,5.603,2.892,7.049,3.434c1.446,0.542,12.291,7.772,10.664,8.315c-1.627,0.542-4.7,2.169-5.061,2.711
			c-0.362,0.542-0.181,6.507-1.446,9.399c-1.265,2.892-1.988,9.038-2.711,11.388c-0.723,2.35-2.892,6.688-3.615,7.953
			c-0.723,1.265-3.434,5.965-3.796,7.772c-0.361,1.807-2.35,7.411-2.169,9.58c0.181,2.169,0.542,9.941-0.904,11.207
			c-1.446,1.265-3.796,0.362-3.796,0.362l-1.807,2.711c0,0-7.592-1.627-10.303-1.988c-2.711-0.362-18.075-3.615-18.075-3.615
			s-1.446,8.134-1.446,9.761s0.181,4.7,0.181,4.7l-17.533-0.362c0,0-0.904-6.146,0-9.399c0.86-3.096,9.082-43.984,10.342-49.486
			c-1.367-3.082-3.611-7.957-8.173-13.959c-6.869-9.038-15.906-15.183-21.329-18.798c-4.995-3.33-13.358-15.546-14.647-17.454
			c-0.347,0.084-0.703,0.141-1.075,0.141c-2.411,0-4.365-1.879-4.525-4.25c-1.941-1.976-4.43-4.869-4.516-5.732
			c-0.12-1.205-0.964-6.628-2.049-9.881c-1.084-3.254-12.773-15.304-12.773-15.304C611.081,298.178,616.986,305.77,615.54,302.757z"
			/>
		<path style="fill:#B8BABB;" d="M508.977,515.833l-9.483-23.843l87.786-27.636c0,0,14.639,36.972,22.672,57.182
			c9.836,2.426,19.156,7.293,24.71,16.496c12.057,19.974,23.573,39.137,30.542,48.37c1.181-0.714,2.561-1.133,4.042-1.133
			c3.758,0,6.894,2.648,7.654,6.179c4.586,3.071,11.819,9.583,11.988,19.85c0.241,14.701-7.953,34.946-6.025,48.924
			c1.928,13.978,0.723,26.029-0.482,29.403c0,0-1.687-19.763-2.169-25.547c0,0,0.723,23.86-6.025,25.788l-6.748-1.446
			c0,0,2.169-10.363,3.615-17.594c0,0-4.82,12.291-6.989,16.388l-7.471-2.41c0,0-2.495-4.455,0.483-12.445
			c0.485-1.302,1.116-2.698,1.927-4.184c5.784-10.604,12.05-20.244,12.291-24.342c0,0-15.183,21.45-17.352,29.403
			c0,0,2.892-18.075,8.917-26.993c6.025-8.917,6.748-17.834,6.748-19.763c0-1.928-3.133-9.881-3.133-14.46
			c0-2.855-0.375-7.771-0.54-11.828c-2.668-1.249-4.521-3.95-4.521-7.091c0-2.159,0.874-4.114,2.287-5.531
			c-0.816-1.04-1.551-2.152-2.046-3.266c-1.928-4.338-32.054-49.406-39.284-54.226c-2.903-1.936-6.705-3.32-10.741-4.324
			c0.877,2.204,1.631,4.095,2.202,5.523c5.419,13.547,15.986,40.371,16.257,41.184c0.271,0.813-15.173,6.503-23.031,9.212
			c-7.857,2.71-61.775,21.947-61.775,21.947l-8.399-20.05c0,0-13.276-4.877-20.863-15.444
			c-7.587-10.567-16.528-38.203-15.173-43.622L508.977,515.833z"/>
		<path style="fill:#B8BABB;" d="M255.755,334.503c0,0,1.357-1.163,2.907-1.938c1.551-0.775,1.551-6.202-0.388-13.76
			s5.814-18.024,5.814-18.024l24.807-11.822l-5.621-51.553l34.038,33.744c0.253-8.275-1.26-16.007-6.618-20.012
			c-10.804-8.077-14.482-14.25-16.026-18.379c-0.204,0.029-0.407,0.062-0.618,0.062c-2.449,0-4.434-1.985-4.434-4.434
			c0-1.081,0.402-2.058,1.044-2.827c-0.471-2.205-1.044-6.548-1.044-7.858c0-1.744-2.326-5.96-4.361-9.303
			c-2.035-3.343-2.326-5.815-3.78-9.74c-1.454-3.925-2.035-5.524-1.454-8.577c0.582-3.053-0.872-5.96-0.872-5.96
			c1.89,1.018,2.617,1.163,2.762,4.216c0.146,3.053,5.524,12.211,5.524,12.211c-0.145-0.436-2.035-5.088-2.616-6.687
			c-0.581-1.599-1.454-8.431-1.454-8.431l4.361-0.291l0.581,6.396c0-0.148,0-0.368,0-0.727c0-1.599,0.727-5.815,1.163-5.815
			s2.035-0.581,2.035,0.436c0,1.018,0.145,9.594,0.145,9.594s0.436,2.762,0.291-0.581c-0.145-3.344,1.454-9.885,1.454-9.885
			l-0.146,7.268c-0.727,4.652,3.489,14.101,5.669,22.241c1.623,6.06,0.025,10.505-0.898,12.383c0.287,0.587,0.462,1.238,0.462,1.936
			c0,1.784-1.06,3.312-2.579,4.015c1.805,4.47,5.85,12.022,13.481,15.391c8.322,3.674,10.05,12.898,9.256,24.674l31.883,31.608
			l-1.744,71.127c0,0-31.978-21.9-32.366-22.482c0,0-12.791,6.783-19.768,7.946c-6.977,1.163-18.412-3.295-22.288-5.233
			c-3.876-1.938-11.822-10.659-13.566-12.791c-1.744-2.132-4.458-4.264-4.458-4.264l2.52-1.938L255.755,334.503z"/>
		<g>
			<path style="fill:#B8BABB;" d="M847.895,897.981c-0.78-1.135-1.986-2.269-1.986-2.269s-7.801-0.638-9.787-1.206l-0.142,2.198
				c0,0,1.206,0.496,1.844,1.135c0.638,0.638,0.851,1.277,1.348,1.489c0.496,0.213,2.056,0.709,2.624,1.347
				c0.568,0.638,1.277,0.709,1.986,1.206c0.709,0.496,4.255,0.851,5.603,0.993c1.347,0.142,3.546,0.426,3.546,0.426
				S848.675,899.116,847.895,897.981z"/>
			<path style="fill:#B8BABB;" d="M919.947,1113.909c-1.536-5.375-1.92-6.143-1.536-11.134c0.384-4.991-0.767-16.125-0.767-16.125
				l5.759-7.679c0,0-0.384-5.759-0.384-9.598c0-3.839-6.143-12.669-8.83-15.357c-2.687-2.687-9.214-10.366-7.294-13.821
				c1.919-3.455,4.223-8.83,2.304-18.044c-1.92-9.214-16.893-7.294-22.268-6.527c-5.375,0.768-6.143-16.125-6.143-16.125
				c-2.951-12.001-4.287-22.884-4.89-30.652l-0.669-4.523c0,0-6.451-40.531-7.333-46.116c-0.881-5.585-2.939-13.815-4.409-16.46
				c-1.47-2.645-7.936-7.642-9.994-8.23c-2.058-0.588-9.7-5.291-10.288-6.761c-0.588-1.47-6.173-5.291-6.173-5.291
				s4.409-10.875,0.882-13.227c-2.495-1.663-6.173,3.821-8.524,10.288c-2.351,6.467-2.645,10.876-2.351,13.521
				c0.294,2.645-0.588,7.936,0.294,12.933c0.881,4.997,1.176,9.112,3.527,10.876c2.352,1.764,9.994,7.936,12.64,10.288
				c2.645,2.352,4.409,5.585,4.409,5.585s1.763,24.984,3.527,39.681c1.763,14.697,3.527,42.62,6.173,52.026
				c2.645,9.406,3.233,11.464,3.233,13.521c0,2.058-3.527,4.115-4.703,6.76c-1.176,2.646-41.739,63.49-47.617,77.893
				c-0.032,0.077-0.067,0.158-0.099,0.236h112.296C920.802,1119.259,920.698,1116.539,919.947,1113.909z M849.384,902.874
				c-1.347-0.142-4.893-0.496-5.602-0.993c-0.709-0.497-1.418-0.567-1.986-1.206c-0.567-0.638-2.127-1.135-2.623-1.347
				s-0.709-0.851-1.348-1.489c-0.638-0.638-1.844-1.135-1.844-1.135l0.142-2.198c1.986,0.567,9.786,1.206,9.786,1.206
				s1.206,1.135,1.986,2.269c0.781,1.135,5.035,5.319,5.035,5.319S850.732,903.016,849.384,902.874z"/>
		</g>
		<path style="fill:#B8BABB;" d="M1071.549,1060.083c-0.855-12.393-7.265-33.759-5.556-45.725c1.71-11.965,3.419-17.52,1.282-27.349
			c-2.136-9.829-1.709-13.247-4.7-16.666c-2.992-3.419-4.701-4.273-4.701-4.273s-3.846,6.837-5.983,6.41
			c-2.136-0.427-1.282-42.306-2.991-53.417c-1.709-11.111-2.137-60.254-4.701-65.382s-5.555-15.384-3.846-23.503
			c1.71-8.12,4.701-16.239,5.128-20.085c0.428-3.846,6.838-14.529,8.974-17.521c2.137-2.991,5.556-9.828,5.556-9.828
			s-5.556-3.846-8.974-0.427l6.837-13.674c0,0-1.709-5.128-9.401-1.282c-7.692,3.846-8.547,8.974-10.684,14.102
			c-2.136,5.128-11.11,20.939-12.82,23.93c-1.709,2.992-4.273,2.564-7.264,8.12c-2.992,5.555-5.983,13.247-5.983,13.247
			s-5.128-15.384-11.965-13.675c-6.838,1.709-5.128,2.564-2.137,7.692s7.265,14.53,8.119,18.376
			c0.855,3.846,3.846,10.256,6.838,14.102c2.991,3.846,6.837,2.991,7.692,10.683c0.854,7.692-0.428,47.434-0.855,61.963
			c-0.427,14.53-2.991,39.742-4.273,46.58c-1.282,6.837-1.71,17.093-2.992,19.657c-1.282,2.564-6.837,8.119-8.546,14.529
			c-1.71,6.41-9.829,17.094-8.974,31.623c0.854,14.529,2.136,12.82,2.136,12.82s-5.555,9.829-4.273,16.239
			c1.282,6.41,2.991,5.983,2.137,8.119c-0.855,2.137-6.838,7.265-8.547,11.538c-0.022,0.055-0.048,0.1-0.069,0.155
			c-0.121,4.755-0.301,9.517-0.535,14.286c1.945,3.417,4.158,7.229,3.595,8.635c-0.74,1.853-3.405,0.175-4.102,0.531
			c-0.227,3.743-0.478,7.488-0.747,11.237h103.85C1080.254,1098.396,1072.131,1068.527,1071.549,1060.083z"/>
		<g>
			<path style="fill:#B8BABB;" d="M1197.37,1118.469c-2.137-0.855-5.983-2.564-5.983-5.983c0-3.419-1.282-12.393-2.564-13.675
				c-1.282-1.282-2.137-4.273-3.846-6.837c-1.709-2.564-5.555-9.829-8.119-13.675c-2.564-3.846-10.684-11.538-10.684-11.538
				l-2.564-3.418c0,0-9.401-31.195-12.392-49.143c-2.992-17.948-4.274-44.442-4.274-46.579c0-2.137,3.419,0,2.992-3.419
				c-0.427-3.418-2.564-3.846-1.71-6.837c0.855-2.991,2.992-9.401,5.128-11.538c2.137-2.137,6.838-11.111,8.547-13.675
				c1.709-2.564,4.273-18.375,6.837-21.794c2.564-3.418,7.265-5.982,7.265-7.264c0-1.282-4.273-4.273-8.547-1.282
				c-4.273,2.991-10.683,10.683-10.683,10.683s-4.273-29.913-10.683-29.913c-6.537,0-2.137,10.256-0.427,14.529
				c1.709,4.273,1.709,13.675,1.709,13.675l-0.427,2.564l-2.564-2.564c0,0-2.136-12.82-5.555-12.82
				c-3.419,0-7.265,1.282-8.119,5.128c0,0-6.41-0.855-7.692,3.418c-1.282,4.274-1.282,4.274-1.282,4.274s-4.701,0-6.41,2.564
				c-1.709,2.564-2.992,8.974-2.137,10.683c0.855,1.709,0.427,11.965,0.855,16.239c0.427,4.273,1.282,12.392,1.282,12.392
				l2.136,4.274c0,0-4.273,0.854-2.991,4.273c1.282,3.419,3.846,2.564,3.846,2.564s1.709,8.119,1.282,12.393
				c-0.427,4.273-3.846,43.161-2.991,50.852c0.854,7.692,0.427,35.042,2.136,41.024c0,0-27.776,26.922-26.922,31.623
				c0.703,3.866,2.852,14.663,5.257,22.181h102.19C1198.707,1120.103,1198.061,1118.746,1197.37,1118.469z"/>
		</g>
		<path style="fill:#B8BABB;" d="M660.875,1121.35c-9.041-4.688-10.046-15.739-12.725-20.092
			c-2.679-4.353-12.725-39.179-14.064-43.533c-1.34-4.353,0-13.73,0-20.092s-2.679-11.385-2.344-18.082
			c0.335-6.697,3.349-33.152,3.349-33.152s-6.363-1.34-9.042-2.344c0,0,1.005-11.05,3.349-13.729
			c2.344-2.679,11.72-12.055,13.06-15.069c1.34-3.014,4.353-17.078,4.353-19.087c0-2.009,1.005-4.688,1.005-4.688
			s13.06-2.344,14.399-2.679c0,0,3.013-5.693-8.372-3.684l-5.023-2.344c0,0,16.743-1.005,20.427-1.674
			c3.683-0.67,4.688-4.688,0-5.023c-4.688-0.335-14.734,0.335-14.734,0.335s-1.34-4.688-4.353-4.353
			c-3.014,0.335-8.037,3.684-11.386,3.684c-3.348,0-9.376,0-9.376,0s24.11-26.454,24.445-31.812c0,0-1.674-6.362-7.702,1.005
			c-6.028,7.367-9.376,10.716-9.376,10.716s5.023-18.417,1.674-17.748c-3.349,0.67-12.725,23.106-14.734,27.124
			c-2.009,4.018-6.028,8.706-8.037,9.376c-2.009,0.67-5.693,1.339-6.697,5.358c-1.005,4.018-1.34,6.027-1.674,10.046
			c-0.335,4.018-0.67,15.069-2.009,20.762c-1.34,5.693-1.34,11.05-3.684,16.073c-2.344,5.023-5.358,9.376-5.023,11.385
			c0.335,2.009-3.014-0.67-3.014-0.67s-1.674,14.399-2.009,17.078c-0.335,2.679-3.684,12.725-2.344,21.432
			c1.34,8.706-3.014,18.083-3.014,25.785c0,7.702,4.689,43.198,4.354,54.583c-0.23,7.8-1.716,17.485-3.061,25.612h74.188
			C661.398,1121.654,661.125,1121.48,660.875,1121.35z"/>
		<g>
			<path style="fill:#B8BABB;" d="M319.637,900.823c1.39-0.219,2.122-0.878,2.78-1.097c0.658-0.22,1.829-0.805,2.048-0.878
				c0.219-0.073-0.146-0.658-1.171-0.878c-1.024-0.219-10.974,0.22-10.974,0.22s2.926,2.414,3.877,3
				C317.15,901.773,318.247,901.042,319.637,900.823z"/>
			<path style="fill:#B8BABB;" d="M326.368,891.165c0.732,0.219,2.268,1.244,2.487,1.463c0.22,0.219,1.536,0.439,1.829,0.146
				c0.293-0.293,1.537-1.756,1.756-1.829c0.22-0.073-0.512-0.805-1.756-1.024c-1.244-0.219-11.34-0.293-11.34-0.293
				c0.585,0.366,1.536,1.024,2.268,1.024C322.344,890.653,325.636,890.946,326.368,891.165z"/>
			<path style="fill:#B8BABB;" d="M316.524,1118.754c0,0-2.357-14.141-3.772-17.912c-1.414-3.771-2.357-39.596-4.242-50.909
				c-1.885-11.313-5.185-23.098-5.185-24.983c0-1.885-4.714-19.327-4.243-22.626c0.472-3.3-1.885-9.428-1.885-10.842
				c0-1.414,0.943-13.198,0.943-13.198s-0.471-10.37,1.415-12.727c1.885-2.357-1.415-8.485-1.415-8.485s-0.471-16.027,5.185-18.384
				c5.656-2.357,8.957-8.485,12.256-9.899c3.3-1.414,10.841-9.899,13.199-15.084c2.357-5.185,0.943-7.071,3.771-8.956
				c2.828-1.885,3.771-6.599,8.484-8.485c4.714-1.885,8.485-4.714,9.899-7.071c1.414-2.357-0.807-10.395-9.436-5.106
				c0,0-5.103,0.185-7.515-0.464c-2.412-0.65-10.762-1.763-12.154-1.948c-1.392-0.185-3.433-1.113-4.361-1.485
				c-0.928-0.371-1.577-0.371-0.835-1.391c0.742-1.021,5.381-4.453,9.186-4.639c3.803-0.186,6.958-1.485,12.432-3.711
				c5.474-2.227,6.958-3.062,7.144-5.103c0.186-2.041-0.279-5.01-3.154-3.711c-2.876,1.299-5.66,1.763-6.866,1.763
				c-1.206,0-5.289,0.835-6.959,1.299c-1.67,0.464-3.989,1.299-5.01,1.392c-1.02,0.093-2.505,0.742-3.526,0.742
				c-1.021,0-1.949,0.093-3.526,0.464c-1.577,0.371-2.598-0.185-2.598-0.185s1.484-1.578,3.525-2.505
				c2.041-0.928,2.135-2.041,2.691-2.227c0.557-0.186,7.051-0.65,9.649-1.484c2.598-0.835,4.175-3.433,4.083-4.453
				c-0.093-1.021-1.208-1.906-1.208-1.906s-4.84,0.147-7.333,0c-2.493-0.147-4.547,0.293-6.746,1.32
				c-2.2,1.027-8.652,3.226-10.413,3.52c-1.76,0.293-3.226,2.053-4.693,4.693c-1.467,2.64-5.28,12.759-7.773,13.932
				c-2.493,1.173-6.893,2.346-8.066,3.96c-1.173,1.613-2.053,6.159-2.64,9.679c-0.586,3.52-4.546,27.424-6.6,32.997
				c-2.053,5.573-5.719,10.706-8.065,14.372c-2.347,3.666-1.027,5.866-1.76,9.679c-0.733,3.813-0.733,3.813-0.733,3.813
				s-1.613,1.613-2.493,4.546c-0.88,2.933-4.839,17.158-4.839,18.185c0,1.027-1.76,0.88-1.907,3.813
				c-0.147,2.933-2.493,11.439-5.719,17.158c-3.226,5.719-3.079,10.706-2.933,13.932c0.146,3.226-1.32,7.772-3.813,12.172
				c-2.493,4.4-4.987,15.252-6.6,26.104c-1.613,10.852-3.813,14.225-7.919,23.464s-6.599,10.412-5.279,21.998
				c0,0,2.581,13.228,4.962,26.893h87.655C318.042,1119.969,317.285,1119.291,316.524,1118.754z M330.684,889.922
				c1.244,0.219,1.976,0.951,1.756,1.024c-0.219,0.073-1.463,1.536-1.756,1.829c-0.292,0.293-1.609,0.073-1.828-0.146
				c-0.22-0.219-1.756-1.244-2.488-1.463c-0.732-0.219-4.024-0.512-4.755-0.512c-0.732,0-1.683-0.659-2.268-1.024
				C319.344,889.629,329.44,889.702,330.684,889.922z M323.295,897.969c1.024,0.22,1.39,0.805,1.171,0.878
				c-0.219,0.073-1.39,0.658-2.048,0.878c-0.659,0.219-1.39,0.878-2.781,1.097c-1.39,0.219-2.487,0.951-3.438,0.366
				c-0.951-0.585-3.877-3-3.877-3S322.271,897.75,323.295,897.969z"/>
		</g>
		<path style="fill:#B8BABB;" d="M533.891,1083.19c-2.491-3.322-2.148-6.778-0.21-10.195c-1.54-1.163-2.591-2.181-2.591-2.719
			c0-1.928-2.313-18.122-3.084-21.206c-0.771-3.084-1.157-4.627-1.157-4.627s18.122-44.726,26.604-58.991
			c8.483-14.266,18.121-18.122,22.363-18.893c4.241-0.771,10.796-7.326,13.88-13.109c3.084-5.783,6.555-9.639,6.169-11.952
			c-0.386-2.314,0.771-13.495,1.157-15.037c0.386-1.542-3.47-5.012-8.868,5.398c-5.398,10.41-5.012,12.724-5.012,12.724
			s-8.097-1.157-9.639-1.157c-1.542,0-2.699-4.627-1.542-8.482c1.156-3.856,0.771-9.639,3.47-13.495
			c2.699-3.856,7.326-12.724,10.411-15.037c3.084-2.313,8.096-5.398,8.482-6.554c0.386-1.157,3.855-3.856-0.771-5.398
			c-4.627-1.542-12.339,5.783-18.508,10.025c-6.169,4.241-8.868,7.326-8.868,7.326s-3.855-3.856,7.326-10.796
			c11.182-6.94,16.194-11.181,10.411-15.037c0,0-10.796,3.856-15.037,8.097c0,0-6.169,0.386-9.254,1.542
			c-3.084,1.157-9.253,4.627-10.41,5.398c-1.157,0.771-7.711,15.808-9.639,18.893c-1.928,3.085-0.772,6.555,0,8.868
			c0.771,2.313,6.168,11.952,3.855,15.422c-2.314,3.47-4.627,4.241-6.555,8.482c-1.928,4.241-14.266,17.35-16.965,20.435
			c-2.699,3.085-13.881,14.266-13.881,14.266s-0.386-4.241-1.927-5.012c-1.542-0.771,0-13.495-5.012-17.736
			c-5.013-4.241-20.436-13.495-35.472-11.953c-15.037,1.542-42.027,1.542-46.268,1.542c-4.242,0-13.88-0.771-13.88-0.771
			s-16.965,26.99-16.194,32.387c0.771,5.398-0.385,9.639-0.771,13.88c-0.386,4.241,1.156,16.579,1.542,19.664
			c0.386,3.085,2.314,19.664,1.928,25.833c-0.386,6.169,1.542,24.676,3.084,30.845c1.542,6.169,4.627,10.41,8.097,14.652
			c3.47,4.241,5.398,7.326,9.254,12.724c3.855,5.398,6.94,9.253,6.169,11.953c-0.334,1.167-0.737,3.56-0.904,6.46H543.43
			C546.423,1109.751,544.497,1096.743,533.891,1083.19z"/>
		<g>
			<path style="fill:#B8BABB;" d="M793.262,1120.571c-2.551-5.867-3.316-7.142-4.081-6.377c-0.766,0.765-15.05-24.998-32.14-44.383
				c-17.09-19.386-28.568-38.261-31.885-47.954c-3.316-9.693-3.316-21.937-8.928-30.864c-5.611-8.927-15.049-27.293-16.07-26.783
				c0,0-5.867-16.07-9.183-15.815c0,0,1.276-4.081-4.591-1.785c-5.867,2.296,0.255,24.997,2.806,34.18
				c0,0-5.867-12.754-8.672-20.406c0,0-9.438-5.612-3.061,18.365c6.377,23.977,7.397,25.508,7.142,26.783
				c-0.255,1.275,0.255,8.928,0.255,8.928l-2.806,0.255c0,0-4.846-11.478-10.203-17.09s-13.519-6.632-11.479-0.51
				c2.041,6.122,3.316-2.041,6.887,13.264c3.571,15.305,4.847,11.733,6.377,16.325c1.53,4.591,9.437,9.948,13.264,12.754
				c3.826,2.806,12.498,5.102,19.13,13.264s14.029,20.151,18.11,28.058c4.081,7.907,15.305,25.508,19.386,39.282
				c0.187,0.628,0.357,1.206,0.528,1.786h49.85C793.628,1121.342,793.407,1120.906,793.262,1120.571z"/>
		</g>
		<path style="fill:#B8BABB;" d="M976.437,1098.134c-4.086-6.599-7.542-14.456-7.857-16.655c-0.314-2.2-5.028-41.167-5.971-57.194
			c-0.943-16.027-0.943-53.423,0.943-58.137c1.885-4.714,6.599-10.056,7.542-15.398c0.943-5.342,0-9.428,3.457-15.084
			c3.457-5.657,8.799-12.256,11.313-16.655c2.514-4.4,3.771-9.113,4.085-10.37c0.315-1.257-3.771-5.028-10.998,2.828
			c-7.228,7.856-8.171,14.141-14.141,14.77c-5.971,0.628-10.056,1.885-11.628,0c-1.571-1.886-8.171-8.485-8.171-9.428
			s5.657-12.885,4.714-15.398c-0.943-2.514-4.399-4.085-4.714-0.943c-0.314,3.142-2.2,5.342-3.142,6.914
			c-0.943,1.571-0.943,1.571-0.943,1.571s-6.913-5.971-6.913-8.799c0-2.828,1.885-15.713-0.943-19.169c-2.829-3.457-4.4-2.2-4.4-2.2
			l-0.943,6.285c0,0-1.571-15.399-9.741-12.57c-0.94,0.325,1.571,7.856,1.571,7.856s-3.143,0.314-2.514,2.2
			c0.628,1.886,2.2,6.285,2.2,10.37c0,4.085,1.885,6.599,2.514,12.256c0.628,5.656,4.085,9.742,4.714,14.141
			c0.628,4.4,0.943,10.685,2.2,13.827c1.257,3.143,5.657,13.199,5.343,16.027c-0.314,2.828,1.885,9.428,2.2,13.827
			c0.314,4.399,0.314,7.228-0.314,10.685c-0.629,3.457,0,8.799,0,13.827c0,5.028-1.885,31.74-2.514,44.624
			c-0.628,12.885-3.457,28.597-3.457,28.597s-7.227,24.512-8.484,30.797c-1.257,6.285-0.628,13.199,1.885,19.798
			c0.552,1.449,1.877,5.292,3.647,10.515h58.596C982.125,1111.537,978.446,1101.379,976.437,1098.134z"/>
		<path style="fill:#B8BABB;" d="M1305.2,1108.331c0.786-5.971,1.257-7.542,1.257-7.542s5.5,0.786,6.756-0.629
			c1.257-1.414,0-1.885-0.628-2.985c-0.628-1.1-4.4-3.614-3.771-5.5c0.628-1.885,1.885-19.012-0.943-25.612
			c-2.828-6.599-2.828-7.856-7.071-13.041c-4.242-5.185-6.442-10.685-7.228-11.942c-0.786-1.257-2.514-2.985-3.457-5.185
			c-0.943-2.2-2.043-3.771-3.457-7.071s-0.786-4.557-2.671-7.542c-1.885-2.985-2.828-4.557-4.714-5.814
			c-1.885-1.257-10.213-4.714-10.213-4.714s4.871-38.967,6.128-41.01c1.257-2.042,13.984-27.811,14.456-28.911
			c0.471-1.1-9.27-7.856-9.585-8.956c-0.314-1.1,4.714-20.584,6.599-24.04c1.885-3.457,12.57-18.384,14.456-33.154
			c1.885-14.77,1.885-20.584,2.357-21.369c0.471-0.786,5.657-11.627,7.228-12.57c1.571-0.943,7.542-4.242,8.328-5.028
			c0.786-0.786,2.828-3.457,1.257-4.4c-1.571-0.943-7.071-0.471-10.999,1.257c-3.928,1.729-10.056,3.928-11.156,4.714
			c-1.1,0.786-2.828-0.943-1.1-4.243c1.728-3.3,15.241-22.312,16.498-24.04c1.257-1.728,3.457-4.557,0.471-7.228
			c-2.985-2.671-7.856,5.971-9.585,6.914c-1.729,0.943-4.557,5.028-5.814,6.442c-1.257,1.414-9.27,9.113-10.528,10.684
			c-1.257,1.571-2.514,3.143-2.514,3.143s0.786-10.528,2.357-13.042c1.572-2.514,11.156-20.898,11.628-23.726
			c0.471-2.828-0.157-4.557-3.457-4.242c-3.3,0.314-5.656,5.185-7.542,8.171c-1.885,2.985-8.956,13.984-10.684,15.87
			c-1.728,1.886-3.142,3.143-3.457,5.342c-0.314,2.2-0.943,5.185-0.943,4.714c0-0.471-1.885-4.871-1.571-7.228
			c0.314-2.357,1.414-9.585,1.885-11.47c0.472-1.885,2.828-8.171,2.828-9.742c0-1.571,2.305-7.625-4.818-6.248
			c-3.374,0.652-3.568,6.812-5.838,10.866c-2.271,4.055-2.433,9.406-3.73,12.65c-1.297,3.243-2.595,6.163-1.622,9.731
			c0.973,3.568,2.433,8.271,2.919,12.65c0.486,4.379,0.811,12.974,0.811,16.704c0,3.73,0.486,14.758-0.325,24.165
			c-0.811,9.406-0.811,14.758-2.108,16.704c-1.297,1.946-4.379,6.811-6.811,14.109c-2.433,7.298-5.028,15.245-5.028,15.245
			s-4.054,1.297-5.027,5.676c-0.973,4.379-12.812,28.543-14.758,32.111c-1.946,3.568-5.514,12.65-6.812,14.758
			c-1.297,2.108-4.703,10.055-5.028,11.677c-0.324,1.622-9.731,15.407-12.65,18.488c-2.919,3.081-13.461,11.515-12.974,11.352
			c0.487-0.162,2.27,3.73,2.595,6.487c0.324,2.757-0.811,5.514,0.162,8.595c0.973,3.081,1.297,5.028,1.297,5.028
			s-4.054,9.082-5.514,24.651c-1.46,15.569-2.108,20.921-2.108,22.867s-0.162,5.19-0.162,5.19s-5.19,5.514-7.784,10.866
			c0,0-14.602,11.12-25.232,23.92h150.214C1305.501,1117.15,1304.788,1111.464,1305.2,1108.331z"/>
		<path style="fill:#B8BABB;" d="M1694.414,1101.065c-1.675-8.041-7.706-30.489-11.392-40.54
			c-3.685-10.051-27.473-46.236-30.489-54.612c-3.015-8.376-14.742-29.819-14.742-31.829c0-2.01-2.01-1.005-1.675-2.01
			c0.335-1.005-5.026-5.026-4.356-13.737c0.67-8.711,7.036-27.809,7.036-31.829c0-4.021-2.345-5.361-2.68-8.376
			c-0.335-3.015,0-8.711-0.335-12.732c-0.335-4.021-1.675-6.366-3.351-9.716c-1.675-3.351-7.371-15.412-7.706-18.427
			c-0.335-3.015-5.36-3.685-8.711,1.34l0.335,4.691c0,0-2.681,2.68,0,5.696l0.335,11.056c0,0-3.015-10.386-7.371-9.046
			c-4.355,1.34-4.02,8.711-2.68,16.082c1.34,7.371,1.34,11.391,0.335,14.407c-1.005,3.015-3.015,6.701-3.686,8.376
			c-0.67,1.675-1.005,4.356-2.01,5.361c-1.005,1.005-9.716,4.355-11.391,5.026s-7.371,0-7.371,0s-15.412-13.402-23.788-13.402
			c-8.376,0-9.381,3.686-9.381,3.686s6.701,5.026,9.046,9.381c2.345,4.355,6.031,4.691,8.376,7.036
			c2.345,2.345,7.036,6.701,8.041,9.046c1.005,2.345,8.376,9.381,13.402,10.721c5.026,1.34,11.726,8.376,12.061,11.391
			c0.335,3.016,1.675,5.361,1.675,5.361l-1.675,2.345c0,0,4.021,5.361,5.696,8.376c1.675,3.015,3.35,17.087,4.355,19.433
			c1.005,2.345,2.68,6.701,2.345,8.376c-0.335,1.675,1.675,8.041,1.675,9.716c0,1.675,0.67,9.381,0.335,16.752
			c-0.335,7.371-0.335,16.417,0,18.762c0.335,2.345-4.355,3.35-1.675,9.381c2.68,6.031,4.69,6.701,4.356,11.727
			c-0.335,5.026-5.696,9.046-4.021,11.727c1.675,2.68,4.356,6.701,5.361,10.386c1.005,3.685,0.335,9.716-0.67,11.391
			c-0.002,0.004-0.005,0.006-0.007,0.01h78.782C1696.33,1115.084,1695.435,1105.963,1694.414,1101.065z"/>
		<g>
			<g>
				<path style="fill:#7F7F81;" d="M882.126,874.089c0.863-1.256,2.198-2.512,2.198-2.512s8.633-0.706,10.831-1.334l0.157,2.433
					c0,0-1.334,0.549-2.041,1.256c-0.707,0.706-0.942,1.413-1.492,1.648c-0.549,0.235-2.276,0.785-2.904,1.491
					c-0.628,0.707-1.413,0.785-2.198,1.334c-0.785,0.549-4.709,0.942-6.2,1.099c-1.491,0.157-3.924,0.471-3.924,0.471
					S881.262,875.345,882.126,874.089z"/>
				<path style="fill:#7F7F81;" d="M801.533,1121.848h124.28c-0.035-0.086-0.074-0.176-0.109-0.261
					c-6.506-15.94-51.398-83.278-52.699-86.206c-1.301-2.928-5.205-5.205-5.205-7.482c0-2.277,0.651-4.554,3.578-14.964
					c2.928-10.41,4.88-41.314,6.832-57.579c1.952-16.265,3.904-43.916,3.904-43.916s1.951-3.578,4.879-6.181
					c2.928-2.602,11.386-9.434,13.989-11.386c2.602-1.952,2.928-6.506,3.903-12.036c0.976-5.53,0-11.385,0.326-14.313
					c0.326-2.928,0-7.807-2.602-14.964c-2.603-7.157-6.674-13.226-9.434-11.386c-3.904,2.602,0.976,14.639,0.976,14.639
					s-6.181,4.229-6.832,5.855c-0.651,1.627-9.109,6.831-11.386,7.482c-2.277,0.651-9.434,6.181-11.06,9.109
					c-1.627,2.928-3.904,12.036-4.879,18.217c-0.976,6.181-8.115,51.037-8.115,51.037l-0.741,5.006
					c-0.667,8.597-2.146,20.642-5.412,33.924c0,0-0.85,18.696-6.798,17.846c-5.949-0.85-22.52-2.974-24.644,7.223
					c-2.124,10.198,0.425,16.146,2.549,19.97c2.125,3.824-5.099,12.322-8.073,15.297c-2.974,2.974-9.772,12.747-9.772,16.996
					c0,4.249-0.425,10.622-0.425,10.622l6.374,8.498c0,0-1.275,12.322-0.849,17.846c0.425,5.524,0,6.373-1.7,12.322
					C801.553,1115.972,801.438,1118.983,801.533,1121.848z M876.553,879.976c0,0,4.709-4.63,5.573-5.886
					c0.863-1.256,2.198-2.511,2.198-2.511s8.633-0.706,10.831-1.334l0.157,2.433c0,0-1.334,0.549-2.041,1.256
					c-0.707,0.706-0.942,1.413-1.492,1.648c-0.549,0.235-2.276,0.785-2.904,1.491c-0.628,0.706-1.413,0.785-2.197,1.334
					c-0.785,0.549-4.71,0.942-6.2,1.099C878.986,879.662,876.553,879.976,876.553,879.976z"/>
			</g>
			<path style="fill:#7F7F81;" d="M82.633,1053.491c0.946-13.715,8.04-37.362,6.149-50.605c-1.893-13.242-3.784-19.39-1.419-30.268
				c2.364-10.878,1.891-14.661,5.201-18.445c3.312-3.784,5.203-4.729,5.203-4.729s4.257,7.567,6.622,7.094
				c2.364-0.473,1.419-46.821,3.31-59.117c1.891-12.297,2.365-66.684,5.203-72.36c2.838-5.675,6.148-17.026,4.257-26.011
				c-1.893-8.986-5.203-17.972-5.675-22.228c-0.474-4.256-7.568-16.08-9.932-19.391c-2.365-3.31-6.149-10.877-6.149-10.877
				s6.149-4.256,9.932-0.473l-7.567-15.134c0,0,1.891-5.675,10.404-1.419c8.513,4.256,9.459,9.932,11.824,15.607
				c2.364,5.675,12.296,23.174,14.188,26.484c1.891,3.311,4.729,2.838,8.039,8.986c3.311,6.148,6.622,14.661,6.622,14.661
				s5.675-17.026,13.242-15.134c7.568,1.892,5.675,2.838,2.365,8.513c-3.31,5.675-8.04,16.08-8.985,20.337
				c-0.946,4.256-4.256,11.35-7.568,15.607c-3.31,4.256-7.567,3.31-8.513,11.823c-0.945,8.513,0.474,52.496,0.946,68.576
				c0.473,16.08,3.31,43.983,4.729,51.551c1.419,7.567,1.893,18.917,3.312,21.755c1.419,2.838,7.567,8.986,9.458,16.08
				c1.893,7.094,10.878,18.918,9.932,34.998c-0.945,16.08-2.364,14.188-2.364,14.188s6.148,10.878,4.729,17.972
				c-1.419,7.094-3.31,6.621-2.365,8.986c0.946,2.365,7.568,8.04,9.459,12.769c0.024,0.061,0.053,0.111,0.077,0.171
				c0.134,5.263,0.333,10.533,0.592,15.81c-2.152,3.782-4.602,8-3.979,9.557c0.819,2.05,3.769,0.194,4.54,0.587
				c0.251,4.142,0.529,8.287,0.826,12.436H64.344C72.999,1095.894,81.988,1062.837,82.633,1053.491z"/>
			<g>
				<path style="fill:#7F7F81;" d="M536.177,1118.109c2.365-0.946,6.621-2.838,6.621-6.621c0-3.784,1.419-13.715,2.838-15.134
					c1.419-1.419,2.365-4.729,4.257-7.567c1.892-2.838,6.148-10.878,8.986-15.134c2.838-4.256,11.824-12.769,11.824-12.769
					l2.838-3.783c0,0,10.405-34.525,13.715-54.388c3.311-19.863,4.73-49.185,4.73-51.55c0-2.365-3.784,0-3.311-3.784
					c0.473-3.783,2.838-4.257,1.892-7.567c-0.946-3.31-3.311-10.405-5.675-12.769c-2.365-2.365-7.567-12.297-9.459-15.134
					c-1.892-2.838-4.729-20.336-7.567-24.12c-2.838-3.783-8.04-6.621-8.04-8.04c0-1.419,4.729-4.73,9.459-1.419
					c4.729,3.31,11.823,11.823,11.823,11.823s4.729-33.106,11.823-33.106c7.235,0,2.365,11.351,0.473,16.08
					c-1.892,4.729-1.892,15.134-1.892,15.134l0.473,2.838l2.838-2.838c0,0,2.365-14.188,6.148-14.188
					c3.784,0,8.04,1.419,8.986,5.675c0,0,7.094-0.946,8.513,3.783c1.419,4.73,1.419,4.73,1.419,4.73s5.202,0,7.094,2.838
					c1.892,2.838,3.311,9.932,2.365,11.823c-0.946,1.892-0.473,13.242-0.946,17.972c-0.473,4.729-1.419,13.715-1.419,13.715
					l-2.365,4.73c0,0,4.729,0.946,3.311,4.729c-1.419,3.784-4.257,2.838-4.257,2.838s-1.892,8.986-1.419,13.715
					c0.473,4.729,4.257,47.767,3.311,56.279c-0.946,8.513-0.473,38.781-2.365,45.402c0,0,30.741,29.795,29.795,34.998
					c-0.778,4.279-3.156,16.228-5.818,24.548H534.079C534.697,1119.917,535.411,1118.415,536.177,1118.109z"/>
			</g>
			<path style="fill:#7F7F81;" d="M1346.207,1121.297c10.006-5.189,11.118-17.418,14.083-22.236
				c2.965-4.818,14.083-43.36,15.565-48.178c1.483-4.818,0-15.195,0-22.236c0-7.041,2.964-12.6,2.594-20.012
				c-0.371-7.412-3.706-36.69-3.706-36.69s7.042-1.483,10.007-2.594c0,0-1.112-12.23-3.706-15.195
				c-2.594-2.965-12.971-13.342-14.453-16.677c-1.483-3.335-4.818-18.901-4.818-21.124c0-2.224-1.112-5.188-1.112-5.188
				s-14.453-2.594-15.936-2.965c0,0-3.335-6.3,9.265-4.077l5.559-2.594c0,0-18.53-1.112-22.607-1.853
				c-4.076-0.741-5.188-5.188,0-5.559c5.188-0.371,16.307,0.371,16.307,0.371s1.483-5.188,4.818-4.818
				c3.336,0.371,8.895,4.077,12.601,4.077c3.706,0,10.376,0,10.376,0s-26.683-29.278-27.054-35.207c0,0,1.853-7.041,8.524,1.112
				c6.671,8.153,10.376,11.859,10.376,11.859s-5.559-20.383-1.853-19.642c3.706,0.741,14.083,25.572,16.307,30.019
				c2.224,4.447,6.671,9.636,8.895,10.377c2.224,0.741,6.3,1.482,7.412,5.93c1.112,4.447,1.482,6.671,1.853,11.118
				c0.371,4.447,0.741,16.677,2.223,22.977c1.483,6.3,1.483,12.23,4.077,17.789c2.595,5.559,5.93,10.377,5.559,12.6
				c-0.371,2.224,3.336-0.741,3.336-0.741s1.853,15.936,2.223,18.901c0.371,2.965,4.077,14.083,2.594,23.719
				c-1.483,9.636,3.336,20.013,3.336,28.536c0,8.524-5.189,47.808-4.818,60.408c0.254,8.633,1.9,19.352,3.388,28.346h-82.105
				C1345.628,1121.634,1345.93,1121.441,1346.207,1121.297z"/>
			<g>
				<path style="fill:#7F7F81;" d="M1437.715,878.438c-1.539-0.243-2.348-0.971-3.077-1.214c-0.729-0.243-2.024-0.891-2.267-0.972
					c-0.243-0.081,0.162-0.729,1.296-0.972c1.133-0.243,12.145,0.243,12.145,0.243s-3.239,2.672-4.291,3.32
					C1440.467,879.49,1439.253,878.681,1437.715,878.438z"/>
				<path style="fill:#7F7F81;" d="M1430.266,867.75c-0.81,0.243-2.51,1.376-2.753,1.619c-0.243,0.243-1.7,0.486-2.024,0.162
					c-0.324-0.324-1.701-1.943-1.943-2.024c-0.243-0.081,0.567-0.891,1.943-1.133c1.376-0.243,12.55-0.324,12.55-0.324
					c-0.648,0.405-1.7,1.133-2.51,1.133C1434.719,867.183,1431.075,867.507,1430.266,867.75z"/>
				<path style="fill:#7F7F81;" d="M1438.652,1121.848h97.01c2.634-15.124,5.491-29.763,5.491-29.763
					c1.46-12.822-1.298-14.12-5.843-24.345c-4.545-10.225-6.979-13.958-8.764-25.969s-4.545-24.021-7.304-28.89
					c-2.759-4.869-4.382-9.9-4.22-13.471c0.162-3.571,0.325-9.089-3.246-15.419c-3.571-6.33-6.168-15.743-6.33-18.99
					c-0.163-3.246-2.11-3.084-2.11-4.22c0-1.136-4.382-16.88-5.356-20.126c-0.974-3.246-2.759-5.031-2.759-5.031s0,0-0.811-4.22
					c-0.812-4.22,0.649-6.655-1.948-10.712c-2.596-4.058-6.654-9.738-8.926-15.906c-2.272-6.167-6.655-32.623-7.304-36.518
					c-0.649-3.895-1.623-8.927-2.922-10.712c-1.298-1.785-6.168-3.084-8.926-4.382c-2.759-1.298-6.979-12.497-8.602-15.419
					c-1.623-2.922-3.246-4.869-5.194-5.194c-1.948-0.325-9.089-2.759-11.524-3.895c-2.434-1.136-4.707-1.623-7.466-1.461
					c-2.759,0.162-8.115,0-8.115,0s-1.235,0.98-1.337,2.11c-0.102,1.129,1.643,4.005,4.518,4.929
					c2.875,0.924,10.063,1.437,10.679,1.643c0.616,0.205,0.719,1.438,2.978,2.464c2.258,1.027,3.901,2.773,3.901,2.773
					s-1.129,0.616-2.875,0.205c-1.745-0.411-2.772-0.513-3.902-0.513c-1.129,0-2.772-0.719-3.902-0.821
					c-1.129-0.103-3.696-1.027-5.544-1.54c-1.848-0.513-6.367-1.438-7.702-1.438c-1.334,0-4.415-0.513-7.599-1.951
					c-3.183-1.438-3.697,1.848-3.491,4.107c0.206,2.259,1.848,3.183,7.907,5.648c6.058,2.464,9.549,3.902,13.759,4.107
					c4.211,0.205,9.344,4.005,10.166,5.134c0.822,1.13,0.103,1.13-0.924,1.54c-1.027,0.411-3.286,1.438-4.826,1.643
					c-1.541,0.205-10.782,1.438-13.451,2.156c-2.67,0.719-8.318,0.513-8.318,0.513c-9.549-5.853-12.008,3.043-10.443,5.651
					c1.565,2.609,5.738,5.739,10.956,7.825c5.217,2.087,6.26,7.304,9.39,9.39c3.13,2.087,1.565,4.174,4.173,9.912
					c2.609,5.739,10.956,15.129,14.607,16.694c3.652,1.565,7.304,8.347,13.564,10.955c6.26,2.608,5.739,20.346,5.739,20.346
					s-3.652,6.782-1.566,9.391c2.087,2.608,1.566,14.085,1.566,14.085s1.043,13.042,1.043,14.607c0,1.565-2.609,8.347-2.087,11.999
					c0.521,3.652-4.696,22.954-4.696,25.041c0,2.087-3.652,15.129-5.738,27.649s-3.13,52.169-4.695,56.342
					c-1.566,4.173-4.174,19.824-4.174,19.824C1440.318,1120.222,1439.48,1120.973,1438.652,1121.848z M1438.038,866.05
					c-0.648,0.405-1.7,1.133-2.51,1.133c-0.81,0-4.453,0.324-5.263,0.567s-2.51,1.377-2.753,1.619
					c-0.242,0.243-1.7,0.486-2.024,0.162c-0.324-0.324-1.701-1.943-1.943-2.024c-0.243-0.081,0.567-0.891,1.943-1.134
					C1426.865,866.131,1438.038,866.05,1438.038,866.05z M1445.812,875.523c0,0-3.239,2.672-4.291,3.32
					c-1.053,0.648-2.267-0.162-3.805-0.405c-1.539-0.243-2.349-0.972-3.077-1.214c-0.729-0.243-2.024-0.891-2.267-0.972
					c-0.243-0.081,0.162-0.729,1.296-0.972C1434.8,875.037,1445.812,875.523,1445.812,875.523z"/>
			</g>
			<path style="fill:#7F7F81;" d="M1208.015,1079.065c2.757-3.676,2.378-7.501,0.233-11.283c1.704-1.287,2.867-2.414,2.867-3.009
				c0-2.134,2.56-20.055,3.413-23.469c0.854-3.414,1.28-5.12,1.28-5.12s-20.056-49.499-29.443-65.287
				c-9.388-15.788-20.055-20.055-24.75-20.909c-4.694-0.854-11.948-8.108-15.362-14.508c-3.413-6.401-7.254-10.668-6.827-13.228
				c0.427-2.56-0.854-14.935-1.28-16.642c-0.427-1.707,3.84-5.547,9.815,5.974c5.974,11.521,5.547,14.082,5.547,14.082
				s8.961-1.28,10.668-1.28c1.706,0,2.987-5.12,1.706-9.388c-1.28-4.267-0.853-10.668-3.84-14.935s-8.108-14.082-11.522-16.642
				c-3.413-2.56-8.96-5.974-9.387-7.254c-0.427-1.28-4.267-4.267,0.853-5.974c5.121-1.707,13.655,6.401,20.483,11.095
				c6.827,4.694,9.815,8.108,9.815,8.108s4.267-4.267-8.108-11.948c-12.375-7.681-17.922-12.375-11.522-16.642
				c0,0,11.948,4.267,16.642,8.961c0,0,6.827,0.427,10.241,1.707c3.413,1.28,10.241,5.121,11.521,5.974
				c1.28,0.854,8.534,17.495,10.667,20.909c2.134,3.414,0.854,7.254,0,9.815c-0.853,2.56-6.827,13.228-4.267,17.068
				c2.561,3.84,5.121,4.694,7.254,9.388c2.134,4.694,15.788,19.202,18.775,22.616c2.987,3.414,15.362,15.789,15.362,15.789
				s0.427-4.694,2.133-5.547c1.707-0.853,0-14.935,5.547-19.628c5.548-4.694,22.617-14.935,39.258-13.228
				c16.642,1.707,46.512,1.707,51.206,1.707c4.694,0,15.362-0.854,15.362-0.854s18.775,29.87,17.922,35.844
				c-0.854,5.974,0.426,10.668,0.853,15.362c0.427,4.694-1.279,18.349-1.706,21.762c-0.427,3.414-2.56,21.762-2.134,28.59
				c0.427,6.828-1.707,27.31-3.413,34.137c-1.707,6.827-5.121,11.521-8.961,16.215c-3.841,4.694-5.974,8.108-10.241,14.082
				c-4.267,5.974-7.681,10.241-6.827,13.228c0.369,1.291,0.816,3.94,1,7.149h-141.391
				C1194.145,1108.461,1196.276,1094.064,1208.015,1079.065z"/>
			<g>
				<path style="fill:#7F7F81;" d="M1562.325,1120.435c2.823-6.493,3.67-7.904,4.517-7.057c0.847,0.847,16.656-27.665,35.569-49.12
					c18.914-21.455,31.617-42.345,35.288-53.072c3.67-10.727,3.67-24.278,9.88-34.158c6.21-9.88,16.655-30.206,17.784-29.641
					c0,0,6.493-17.785,10.163-17.503c0,0-1.412-4.517,5.081-1.976c6.493,2.541-0.282,27.665-3.105,37.828
					c0,0,6.493-14.115,9.598-22.584c0,0,10.445-6.21,3.388,20.326s-8.187,28.23-7.904,29.641c0.282,1.411-0.283,9.88-0.283,9.88
					l3.106,0.282c0,0,5.364-12.703,11.292-18.914c5.928-6.211,14.962-7.34,12.703-0.565c-2.258,6.775-3.67-2.258-7.622,14.68
					c-3.952,16.938-5.364,12.986-7.058,18.067c-1.693,5.081-10.444,11.01-14.679,14.115c-4.234,3.105-13.832,5.646-21.172,14.679
					c-7.34,9.034-15.527,22.301-20.043,31.053c-4.517,8.751-16.938,28.23-21.455,43.474c-0.206,0.695-0.395,1.334-0.585,1.977
					h-55.17C1561.92,1121.288,1562.164,1120.806,1562.325,1120.435z"/>
			</g>
			<path style="fill:#7F7F81;" d="M1009.75,1095.603c4.522-7.303,8.347-15.998,8.695-18.433c0.348-2.434,5.564-45.561,6.608-63.298
				c1.043-17.737,1.043-59.124-1.043-64.341c-2.087-5.217-7.303-11.129-8.347-17.042c-1.043-5.913,0-10.434-3.826-16.694
				c-3.826-6.26-9.738-13.564-12.52-18.433c-2.782-4.869-4.173-10.086-4.521-11.477c-0.348-1.391,4.173-5.565,12.172,3.13
				c8,8.695,9.043,15.65,15.651,16.346c6.609,0.695,11.13,2.087,12.868,0c1.739-2.087,9.043-9.391,9.043-10.434
				c0-1.043-6.261-14.259-5.217-17.042c1.043-2.782,4.869-4.521,5.217-1.043c0.348,3.478,2.434,5.912,3.478,7.651
				c1.043,1.739,1.043,1.739,1.043,1.739s7.651-6.608,7.651-9.738c0-3.13-2.087-17.39,1.043-21.215
				c3.131-3.826,4.87-2.435,4.87-2.435l1.043,6.956c0,0,1.739-17.042,10.781-13.912c1.04,0.36-1.739,8.695-1.739,8.695
				s3.478,0.348,2.782,2.434c-0.696,2.087-2.434,6.956-2.434,11.477c0,4.521-2.087,7.304-2.782,13.564
				c-0.696,6.26-4.521,10.782-5.217,15.651c-0.695,4.869-1.043,11.825-2.434,15.303c-1.391,3.478-6.261,14.607-5.913,17.737
				s-2.087,10.434-2.434,15.303c-0.348,4.869-0.348,7.999,0.348,11.825s0,9.738,0,15.303c0,5.565,2.087,35.127,2.782,49.386
				c0.696,14.26,3.826,31.649,3.826,31.649s7.999,27.128,9.39,34.084c1.391,6.956,0.696,14.607-2.087,21.911
				c-0.611,1.603-2.077,5.856-4.036,11.637h-64.85C1003.455,1110.437,1007.527,1099.194,1009.75,1095.603z"/>
			<path style="fill:#7F7F81;" d="M664.492,1106.888c-0.869-6.608-1.391-8.347-1.391-8.347s-6.087,0.869-7.478-0.696
				c-1.391-1.565,0-2.087,0.696-3.304c0.695-1.217,4.869-4,4.173-6.087c-0.696-2.087-2.087-21.041,1.044-28.345
				c3.13-7.304,3.13-8.695,7.825-14.433c4.695-5.739,7.129-11.825,7.999-13.216c0.869-1.391,2.782-3.304,3.826-5.738
				c1.043-2.435,2.261-4.173,3.826-7.825c1.565-3.652,0.869-5.043,2.956-8.347c2.087-3.304,3.13-5.043,5.217-6.434
				c2.087-1.391,11.303-5.217,11.303-5.217s-5.391-43.126-6.782-45.387c-1.391-2.261-15.477-30.78-15.998-31.997
				c-0.522-1.217,10.26-8.695,10.607-9.912c0.348-1.217-5.217-22.78-7.303-26.606c-2.087-3.826-13.912-20.346-15.998-36.692
				c-2.087-16.346-2.087-22.78-2.609-23.65c-0.522-0.869-6.26-12.868-7.999-13.912c-1.739-1.043-8.347-4.695-9.216-5.565
				c-0.869-0.87-3.13-3.826-1.391-4.869c1.739-1.043,7.825-0.522,12.172,1.391c4.348,1.913,11.13,4.348,12.347,5.217
				c1.217,0.87,3.13-1.043,1.217-4.695c-1.913-3.652-16.868-24.693-18.259-26.606c-1.391-1.913-3.826-5.043-0.522-7.999
				c3.304-2.956,8.695,6.608,10.608,7.651c1.913,1.043,5.043,5.565,6.434,7.13c1.391,1.565,10.26,10.086,11.651,11.825
				c1.391,1.739,2.782,3.478,2.782,3.478s-0.869-11.651-2.608-14.433c-1.739-2.782-12.347-23.128-12.868-26.258
				c-0.522-3.13,0.174-5.043,3.826-4.695c3.652,0.348,6.26,5.739,8.347,9.042c2.087,3.304,9.912,15.477,11.825,17.563
				c1.913,2.087,3.478,3.478,3.826,5.913c0.348,2.434,1.044,5.739,1.044,5.217c0-0.522,2.087-5.391,1.739-7.999
				c-0.348-2.609-1.565-10.608-2.087-12.694c-0.522-2.087-3.13-9.043-3.13-10.782s-2.551-8.439,5.333-6.915
				c3.734,0.722,3.949,7.539,6.462,12.026c2.513,4.487,2.692,10.41,4.128,14c1.436,3.59,2.872,6.82,1.795,10.769
				c-1.077,3.949-2.693,9.154-3.231,14c-0.538,4.846-0.898,14.359-0.898,18.487c0,4.128-0.538,16.333,0.359,26.743
				c0.897,10.41,0.897,16.333,2.333,18.487c1.436,2.154,4.846,7.539,7.538,15.615c2.692,8.077,5.564,16.872,5.564,16.872
				s4.487,1.436,5.564,6.282c1.077,4.846,14.18,31.589,16.333,35.538c2.154,3.948,6.103,14,7.538,16.333
				c1.436,2.333,5.205,11.128,5.564,12.923c0.359,1.795,10.769,17.051,14,20.461c3.231,3.41,14.898,12.744,14.359,12.564
				c-0.539-0.18-2.513,4.128-2.872,7.179c-0.359,3.051,0.898,6.102-0.179,9.513c-1.077,3.41-1.436,5.564-1.436,5.564
				s4.487,10.051,6.102,27.282c1.615,17.23,2.333,23.154,2.333,25.307c0,2.154,0.18,5.743,0.18,5.743s5.744,6.103,8.615,12.026
				c0,0,16.16,12.307,27.925,26.473H663.307C664.159,1116.649,664.949,1110.356,664.492,1106.888z"/>
			<path style="fill:#7F7F81;" d="M268.328,1098.847c1.854-8.899,8.528-33.743,12.607-44.867
				c4.079-11.124,30.406-51.17,33.743-60.44c3.337-9.27,16.315-33.001,16.315-35.226c0-2.225,2.224-1.112,1.854-2.225
				c-0.371-1.112,5.562-5.562,4.82-15.203c-0.742-9.641-7.787-30.776-7.787-35.226c0-4.45,2.595-5.933,2.966-9.27
				c0.371-3.337,0-9.641,0.371-14.09c0.371-4.45,1.854-7.045,3.708-10.753c1.854-3.708,8.158-17.057,8.529-20.394
				c0.371-3.337,5.933-4.079,9.641,1.483l-0.371,5.191c0,0,2.966,2.966,0,6.304l-0.371,12.236c0,0,3.337-11.495,8.158-10.012
				c4.82,1.483,4.449,9.641,2.966,17.798c-1.483,8.158-1.483,12.607-0.371,15.944c1.113,3.337,3.337,7.416,4.079,9.27
				c0.741,1.854,1.112,4.82,2.225,5.933c1.113,1.112,10.753,4.82,12.607,5.562c1.854,0.742,8.157,0,8.157,0
				s17.057-14.832,26.327-14.832c9.27,0,10.382,4.079,10.382,4.079s-7.416,5.562-10.011,10.382c-2.596,4.82-6.675,5.191-9.27,7.787
				c-2.595,2.596-7.787,7.416-8.899,10.012c-1.112,2.596-9.27,10.382-14.832,11.866c-5.562,1.483-12.978,9.27-13.349,12.607
				c-0.371,3.337-1.854,5.933-1.854,5.933l1.854,2.595c0,0-4.45,5.933-6.304,9.27c-1.854,3.337-3.708,18.911-4.82,21.506
				c-1.113,2.596-2.966,7.416-2.596,9.27c0.371,1.854-1.854,8.899-1.854,10.753c0,1.854-0.742,10.382-0.371,18.54
				c0.371,8.157,0.371,18.169,0,20.765c-0.371,2.596,4.82,3.708,1.854,10.382c-2.966,6.675-5.191,7.416-4.82,12.978
				s6.304,10.011,4.45,12.978c-1.854,2.966-4.82,7.416-5.933,11.495c-1.113,4.079-0.371,10.753,0.742,12.607
				c0.002,0.004,0.006,0.007,0.008,0.011h-87.189C266.207,1114.362,267.198,1104.268,268.328,1098.847z"/>
		</g>
		<g>
			<path style="fill:#272425;" d="M611.169,1119.854c-2.512-6.281-28.265-28.265-35.802-32.662
				c-7.537-4.397-8.165-5.025-12.562-5.653c-4.397-0.628-19.472-11.934-21.984-12.562c-2.512-0.628-21.355-11.934-21.355-11.934
				s-0.714-14.189-1.622-16.186c-0.908-1.996-2.36-3.63-2.36-3.63s0.908-3.267,0.726-3.993c-0.181-0.726,11.07-21.778,11.796-25.952
				c0,0,1.452,3.629,4.9,3.811c3.448,0.182,7.804-4.537,9.255-7.804c1.452-3.267,5.626-13.429,5.626-17.241
				c0-3.811-2.178-5.626-4.9-6.17c-2.722-0.544-4.537,0.182-4.537,0.182s2.904-7.804,3.267-14.518
				c0.363-6.715,1.815-16.152,2.359-16.152c0.482,0,45.163-19.613,58.191-26.007c0.252,2.812,0.864,8.541,2.154,15.631
				c1.844,10.144,4.611,13.601,13.371,19.134c8.76,5.533,3.919,12.91,3.919,12.91s0,0-3.689,1.383
				c-3.689,1.383-1.152,4.611-1.383,5.533c-0.23,0.922-0.691,7.377-1.844,11.988c-1.153,4.611,3.227,16.368,3.227,16.368
				c-0.922-4.149-1.152-13.601-1.152-13.601c2.305,2.075,4.841,17.06,4.841,17.06c5.302-4.611-0.23-17.982-0.23-17.982
				c2.305,2.536,3.228,9.913,3.228,9.913c1.152-2.997-0.692-6.686-2.075-10.143c-1.383-3.458,0-9.452,2.766-12.91
				c2.766-3.458-2.075-7.147-2.075-7.147c4.15-10.605-5.994-14.754-13.371-22.593c-6.012-6.387-6.359-21.039-6.281-26.245
				c0.927-0.472,1.609-0.842,1.926-1.058c0,0-1.815-2.541-2.722-3.086c-0.908-0.544-107.437-59.344-109.251-60.251
				c-1.815-0.908-7.259,4.174-11.796,5.989c-4.537,1.815-90.922,33.211-92.192,34.481c-1.271,1.27-0.726,3.448,0.726,4.356
				c1.452,0.907,50.996,30.67,50.996,30.67s-2.904,13.792-3.267,16.696c-0.363,2.904-1.452,9.8-1.27,11.615
				c0.181,1.815,0.362,3.993,0.362,3.993s-3.992-1.815-7.804,2.541c-3.811,4.356-2.178,7.441-2.178,12.703
				c0,5.263-1.089,9.982-0.544,10.708c0.544,0.726,4.174,9.618,8.893,9.437c4.719-0.182,5.989-1.452,5.989-1.452
				s1.815,4.719,1.815,5.263c0,0.545-8.711,12.159-10.889,16.334c-2.178,4.174-7.985,8.529-9.074,9.981c-1.089,1.452-4.9,0-4.9,0
				s-19.963-4.9-24.137-4.174c0,0-16.333-6.17-19.055-7.078c-2.722-0.907-8.348-3.085-8.892-4.537
				c-0.544-1.452-2.904-7.622-2.541-9.074c0.363-1.452,3.63-3.811,2.541-10.526c-1.089-6.715-4.9-13.43-4.9-13.43
				s-11.07-1.814-17.241-1.814c-6.171,0-13.429,3.448-15.97-3.267c-2.541-6.715-7.441-26.314-10.526-31.215
				c-3.085-4.9-15.426-21.233-14.337-26.315c1.089-5.082,0.182-20.507,0-28.492c0,0,6.533,1.633,7.259-12.885
				c0.726-14.518-0.726-25.952,1.452-27.948c2.178-1.997,9.8-9.256,10.344-13.067c0.545-3.811,0.181-16.515,1.997-20.144
				c1.814-3.63,2.177-11.252,3.629-13.43s8.893-9.074,13.248-12.341c4.356-3.267,7.441-7.804,8.167-8.529
				c0.726-0.726,2.36-4.719,1.452-11.796c-0.907-7.078,0.908-10.163,0.545-11.07c-0.363-0.908-1.815-2.359-1.452-3.267
				c0.363-0.907,5.081-8.529,4.537-12.885c-0.544-4.355-10.163-5.081-12.341-2.904c-2.178,2.178-2.178,2.178-2.178,2.178
				s-7.441-3.811-9.618-3.629c-2.178,0.181-8.348-0.364-11.07,1.633c-2.723,1.996-4.356,4.537-4.356,4.537s-5.807-2.178-8.53-1.089
				c-2.722,1.089-5.626,3.63-6.352,3.448c-0.726-0.181-5.808,0.182-7.804,1.815c-1.996,1.633-4.718,9.255-5.626,13.066
				c-0.907,3.811-2.689,17.531-2.689,17.531s-7.178-1.958-14.356,15.662c0,0-7.831,8.483-18.271,14.356
				c-10.441,5.873-40.458,17.619-50.899,47.636c-10.441,30.017-16.967,45.026-21.534,49.594
				c-4.568,4.568-22.187,31.975-31.323,57.425c-9.136,25.449-17.619,40.458-17.619,40.458s-9.789,1.305-11.093,7.178
				c-1.305,5.873,1.305,30.67-1.305,40.458c-2.61,9.788-7.831,21.534-9.788,26.755c-1.958,5.22-1.306,19.577,0,23.492
				c0.709,2.129,0.843,10.238,2.179,17.929h502.07C611.677,1121.082,611.381,1120.385,611.169,1119.854z"/>
			<path style="fill:#272425;" d="M1042.205,1094.813c-21.355-4.24-32.661-7.223-32.661-7.223s0-3.769-5.81-3.612
				c-5.81,0.157-12.562,0.157-12.562,0.157l-2.199,2.042c0,0-13.818-1.413-15.702-0.942c-1.884,0.471-2.199-8.636-2.355-9.736
				c-0.157-1.099,1.413-0.628,1.413-0.628s-8.794-15.703-10.207-16.802c-1.413-1.099-2.983-2.826-2.983-2.826
				s-0.314-8.95,1.099-10.364c1.413-1.413,5.81-14.761,5.339-15.546c-0.471-0.785,2.827,2.512,5.653,1.256
				c2.827-1.256,4.397-7.38,4.554-8.636c0.157-1.256,0-5.496,0.942-7.066c0.942-1.57,1.256-4.397,0.785-6.124
				c-0.471-1.727-3.141-8.165-3.926-8.323c-0.785-0.157,0.314-3.14,0.314-4.868c0-1.727,1.099-5.025,1.413-5.81
				c0.314-0.785-0.157-4.711-0.314-5.496c-0.157-0.785-0.314-3.769,0.157-5.025c0.471-1.256-0.785-5.653-0.785-5.653l-0.942-2.826
				l3.612,3.769c0,0-0.628-2.355-0.942-3.455c-0.314-1.099,1.413-1.099,1.413-1.099l-1.57-2.826c0,0-4.868-9.893-5.653-10.678
				c-0.785-0.785-2.513-4.868-4.083-5.653c-1.57-0.785-7.852-5.496-8.637-6.752c-0.785-1.256-0.471-3.141-2.355-4.24
				c-1.884-1.099-3.298-1.884-6.909-3.141c-3.612-1.256-8.165-2.512-11.463-2.983c-3.297-0.471-9.579,0-11.463-0.157
				c-1.884-0.157,1.099-4.397,8.323-3.298c0,0-6.124-2.512-14.76,2.513c0,0-7.537,0.785-8.008,0.785
				c-0.471,0,1.413-1.884,5.967-3.298c0,0-7.537,0-13.19,6.909c0,0-4.397,7.223-5.339,7.223c-0.942,0-0.314-3.769-0.314-3.769
				s-3.925,5.025-4.711,5.182c-0.785,0.157-4.397,3.141-5.653,4.24c-1.256,1.099-2.198,0.628-3.14,3.141
				c-0.942,2.512-2.041,0.471-3.769,2.826c-1.727,2.355-3.926,3.769-4.554,5.81c-0.628,2.042-0.942,1.884-1.256,4.554
				c-0.314,2.67-0.314,2.198-1.727,4.711c-1.413,2.512-2.984,5.182-2.198,6.595c0.785,1.413,1.57,3.298,2.041,5.339
				c0.471,2.042,0,0.942,1.256,3.926c1.256,2.983,2.041,7.537,2.198,9.893s0.785,3.298,0.785,3.298s-3.298,3.298-3.454,7.537
				c-0.157,4.24,1.57,7.38,1.413,11.306c-0.157,3.925-0.942,5.967,0.628,7.537c1.57,1.57,4.24,2.512,5.653,2.983
				c1.413,0.471,3.455,0.785,3.455,0.785s2.198,6.752,3.298,8.322c1.099,1.57,1.727,7.537,3.14,9.579
				c1.413,2.041,1.57,10.049,2.041,11.306c0.471,1.256,0.785,2.826,0.785,2.826s-1.727,2.041-2.041,2.512
				c-0.314,0.471-4.24,15.86-4.711,19.314c-0.471,3.455,0.785,3.455,0.785,3.455s-2.198,2.355-3.455,2.041
				c-1.256-0.314-16.959-12.876-22.141-14.132c-5.182-1.256-9.736-3.612-9.578-5.496c0.157-1.884-0.314-9.578-0.471-11.149
				c-0.157-1.57-8.951-19.943-10.364-23.554s-1.57-6.124-3.455-7.066s-5.653-2.198-8.166-1.413
				c-2.512,0.785-5.653,1.884-7.537,1.256c-1.884-0.628-8.793-6.124-13.818-7.38c-5.025-1.256-7.537-1.884-8.794-2.826
				c-1.256-0.942-20.099-28.578-24.025-33.132c-3.925-4.554-15.388-25.752-17.587-28.422c-2.198-2.67-8.794-12.876-10.207-13.504
				c-1.413-0.628-3.14-4.24-5.025-5.025c-1.884-0.785-9.579-14.917-10.521-20.099c-0.942-5.182-2.041-11.306-1.884-14.447
				c0.157-3.141-1.099-11.149-1.099-13.033s-0.471-4.868-0.471-4.868l-11.149-0.785c0,0-2.983-13.661-4.397-17.744
				c-1.413-4.083-5.025-7.38-6.909-8.951c-0.987-0.823-2.836-2.676-4.711-4.19c0.51-1.153,0.995-2.338,1.431-3.574
				c6.281-17.797,3.839-52.691-0.698-59.321l-17.098-5.234c0,0-0.349-31.405-4.536-38.384l-19.989,12.426
				c1.7-22.568-1.484-44.047-17.303-50.992c-33.634-14.766-23.898,23.887-36.679,37.768c-0.848-0.745-1.947-1.212-3.164-1.212
				c-2.056,0-3.799,1.295-4.489,3.109c-1.261-0.341-4.143-0.202-9.617,4.255c-7.931,6.458-9.29,11.216-12.236,14.162
				c-2.946,2.946-4.079,7.364-6.118,7.138c-2.039-0.226-3.739,1.813-4.192,6.571c0,0,1.813-4.759,5.325-5.325
				c0,0-3.172,2.493-2.606,6.005c0.566,3.512,1.473,3.399-0.453,6.231c0,0,3.739-1.926,2.719-6.118
				c-1.02-4.192,2.379-5.778,4.419-7.024c2.039-1.246,5.552-2.039,6.344-3.172c0.793-1.133-4.645,6.571-5.098,11.783
				c-0.453,5.212-0.227,8.724-1.473,9.404c0,0,2.946-1.813,3.172-6.911c0.227-5.098,3.172-9.29,4.419-10.876
				c1.099-1.399,2.547-3.234,2.874-3.883c-0.371,1.279-2.148,8.869-1.741,12.833c0,0,0.566,6.231-0.68,7.137
				c0,0,2.379-1.586,2.379-5.665c0-4.079,1.133-11.103,2.153-12.802c1.02-1.7,1.699-1.926,4.079-4.419
				c2.379-2.493,3.399-3.852,4.645-5.892c0.942-1.542,3.435-5.087,4.694-7.167c0.469,0.153,0.961,0.256,1.48,0.256
				c2.66,0,4.815-2.156,4.815-4.815c0-0.66-0.134-1.289-0.375-1.862c0.605-0.506,1.222-1.058,1.849-1.685
				c4.576-4.576,8.846-37.214,17.692-38.129c8.846-0.915,21.047,3.05,23.487,8.54c2.441,5.491,9.151,10.982,7.931,30.199
				c-0.32,5.036-0.851,9.959-1.458,14.551l-54.272,33.737l5.932,107.825l40.129-21.286c0,0,20.239,1.396,22.682,9.77
				c0,0,5.193-6.11,7.576-10.04c1.266,0.2,2.539,0.236,3.59-0.079c3.49-1.047,5.583,3.14,6.63,5.583
				c1.047,2.443,0.349,12.213,0.349,12.213s5.234,18.145,4.536,18.494c-0.698,0.349,3.14,21.983,2.792,23.379
				c-0.349,1.396,1.047,9.422,1.047,9.422s-6.979,0-11.864,0.349c-4.886,0.349-9.771,3.838-9.771,3.838s2.792,3.141,7.677,11.864
				c4.885,8.724,9.422,10.817,8.724,18.145c-0.698,7.328-0.349,9.072-0.349,9.072s10.469,12.911,15.354,18.146
				c4.885,5.234,11.515,9.77,13.958,11.515c2.442,1.745,5.234,23.38,14.307,42.921c9.073,19.541,17.098,33.15,21.286,37.686
				c4.188,4.536,6.979,8.026,14.307,15.354c0.692,0.692,1.45,1.502,2.236,2.364h305.791
				C1071.392,1111.211,1057.028,1097.756,1042.205,1094.813z"/>
			<g>
				<path style="fill:#272425;" d="M1731.306,501.78l1.085-1.605C1732.392,500.176,1731.943,500.752,1731.306,501.78z"/>
				<path style="fill:#272425;" d="M1554.207,1120.056c-0.605-5.649-3.228-15.334-1.816-19.974
					c1.412-4.641,8.676-15.939,9.079-18.158c0.404-2.219,2.623-16.141-0.403-19.772c-3.026-3.632,6.658-4.842,6.254-6.456
					c-0.404-1.614-5.246-6.658-4.842-10.29c0.404-3.631,1.816-9.684,2.623-13.114c0.807-3.43,2.623-10.088,2.219-12.913
					c-0.404-2.825,1.009-4.237,2.219-7.061c1.211-2.824,1.614-3.43,2.825-7.667c1.21-4.237,1.614-5.649,3.631-7.667
					c2.018-2.017,9.483-14.93,10.895-19.369c1.412-4.439,1.816-12.307,4.237-15.535c2.421-3.228,10.29-11.096,10.29-16.746
					c0-5.649-1.816-14.526-1.21-15.737c0.605-1.21,3.228-11.096,4.439-15.333c1.21-4.237,4.439-14.123,3.833-17.755
					c-0.605-3.631-2.421-8.675-1.412-11.5c1.009-2.825,3.833-10.29,5.447-10.693c1.614-0.404,7.667-4.842,9.079-7.868
					c1.412-3.026,4.64-10.29,5.044-14.728c0.403-4.439,3.228-12.912,5.044-14.526c1.816-1.614,4.641-2.219,6.658-5.044
					c2.017-2.824,9.483-21.386,9.483-27.842c0-6.456,3.026-15.737,3.43-17.149c0.404-1.412,14.93-34.298,15.535-36.72
					c0.605-2.421,2.018-5.246,4.439-6.86c2.421-1.614,13.719-9.483,15.535-11.904s3.228-5.044,2.623-6.254
					c-0.605-1.211-0.404-6.052-1.412-7.465c-1.009-1.412-0.605-5.851-1.412-6.658c-0.807-0.807-0.202-3.43-2.018-3.632
					c-1.816-0.202-1.816-1.412-2.219-2.018c-0.403-0.605-3.43-1.816-4.237-2.825c-0.807-1.009,0.404-2.824,0.404-4.439
					c0-1.614-2.421-7.465-1.009-9.079c1.412-1.614,5.044-4.842,5.044-4.842s11.544-33.432,17.921-52.757
					c8.968-8.196,29.203-32.595,32.653-38.631c3.763-6.586,2.587-16.934,1.411-21.167c-1.105-3.977-5.944-13.97-7.697-16.921
					c3.197-0.773,5.58-3.634,5.58-7.068c0-2.757-1.548-5.127-3.805-6.366c-0.116-0.137-0.193-0.219-0.193-0.219s0-3.528,0.47-6.586
					c0.47-3.057,0-4.233-1.646-15.052c-1.225-8.051,2.236-14.924,4.089-17.916l-4.324,6.392c-0.235-1.411-1.881-4.233-3.528-8.937
					c-1.646-4.704-5.88-11.289-11.995-13.406c-6.115-2.117-8.937-7.526-8.937-7.526c-2.587,3.057-0.235,7.291-0.235,7.291
					c-4.469-3.763-9.172-0.47-9.172-0.47c3.763-0.47,7.526,6.35,7.526,6.35c-5.645-6.35-8.702-2.117-8.702-2.117
					c3.763-0.941,6.585,5.644,6.585,5.644c-3.528,0.471-6.585-3.057-6.585-3.057c-0.47,3.293,6.35,5.88,6.35,5.88
					c-7.291,0.941-8.467-2.822-8.467-2.822c-1.176,3.998,5.88,4.704,5.88,4.704c6.781-0.678,12.567,6.446,15.279,10.488
					c-2.738-2.57-7.518-2.726-7.518-2.726c7.526,0.47,10.348,14.347,10.348,14.347c-3.292-6.35-7.291-7.291-7.291-7.291
					c3.057,0.706,7.291,10.349,8.937,12.935c1.646,2.587,3.528,9.643,4.234,13.171c0.112,0.56,0.307,1.208,0.546,1.894
					c-1.48,1.334-2.428,3.247-2.428,5.396c0,3.844,2.984,6.959,6.756,7.237c0.35,1.605,0.992,3.334,2.181,4.523
					c2.822,2.822,5.645,10.819,6.35,17.639c0.706,6.82-2.822,18.11-12.23,29.399c-6.105,7.326-13.873,14.928-18.589,19.377
					c0.961-2.982,1.682-5.301,2.035-6.596c2.421-8.877,21.588-60.729,21.588-60.729s-22.798,30.264-26.026,31.273
					c-3.228,1.009-12.307-2.825-14.93-3.026c-2.623-0.202-26.632-9.079-27.641-9.079c-1.009,0-24.211,30.667-26.632,36.114
					c-2.421,5.448-11.702,31.272-11.702,31.272s-8.676,8.676-7.869,11.903c0.807,3.228,8.272,9.079,8.272,9.079
					s11.097,1.614,16.746,3.632c5.649,2.018,13.115,7.869,18.562,8.07c5.448,0.202,15.132,4.842,15.132,4.842l-5.246,16.14
					c0,0-1.412-3.026-3.632-1.21c-2.219,1.816-3.632,6.86-4.64,7.263c-1.009,0.403-8.272,5.649-9.886,6.052
					c-1.614,0.404-5.245,1.614-6.658,5.649c-1.412,4.035-2.018,13.114-2.219,17.149c-0.202,4.035,0.202,5.851-1.816,10.491
					c-2.018,4.64-16.141,36.72-16.141,36.72s-118.027,32.079-129.931,38.334c-11.904,6.254-31.878,23.807-32.079,34.097
					c-0.202,10.29,3.43,24.009,4.439,27.036c1.009,3.026,4.439,12.307,3.833,14.728c-0.605,2.421-2.017,3.833-2.219,5.851
					c-0.202,2.018,0.202-9.483-4.641-18.965c-4.842-9.483-7.061-15.939-8.675-15.132c-1.614,0.807-3.632-3.43-4.237-5.246
					c-0.605-1.816-2.018-4.842-5.448-4.237c-3.43,0.605-5.246,0.807-7.465-0.605c-2.219-1.412-3.026-2.825-5.851-2.017
					c-2.825,0.807-4.035,1.412-6.658,1.816c-2.623,0.404-13.518-0.202-16.544,1.21c-3.026,1.413-4.439,2.421-6.86,3.43
					c-2.421,1.009-7.442,3.081-7.442,3.081s-6.899,0.627-10.035,2.509c-3.136,1.882-11.916,9.408-15.052,12.544
					c-3.136,3.136-5.017,1.881-8.153,5.644c-3.136,3.763-4.39,9.408-5.018,13.171c-0.627,3.763,1.255,6.899-1.254,12.543
					c-2.509,5.645-3.763-1.254-2.509,5.645c1.254,6.899,0,8.78-1.881,13.171c-1.882,4.39,0.627,4.39,1.881,10.035
					c1.254,5.645,0.627,10.662,3.763,13.171c3.136,2.509,6.899,6.899,6.899,6.899s-3.763,3.763,0.627,11.289
					c4.39,7.526,7.526,13.798,10.662,15.68c3.136,1.881,17.561,5.017,17.561,5.017s-3.136,2.509-13.171,4.39
					c-10.035,1.882-38.258,3.763-42.021,5.645c-3.763,1.882-22.578,0-25.087,7.526c-2.509,7.526-9.407,12.544-6.899,20.697
					c0,0-11.289-0.627-20.07-4.39c-5.122-2.195-12.579-6.513-18.536-9.491c-4.579-15.063-17.266-24.627-21.84-34.189
					c-5.624-11.759-8.691-21.472-7.669-24.029c1.023-2.556,10.736-8.691,9.202-15.337c-0.162-0.704-0.394-2.735-0.628-5.09
					c0.162-0.092,0.329-0.207,0.507-0.374c3.998-3.763,3.846-12.177,3.057-13.641c-1.015-1.884-3.277-2.427-4.867-2.567
					c-0.485-2.004-1.419-4.051-3.182-5.423c-2.058-1.6-23.006-3.067-26.584,4.602c0,0-4.09,14.315-3.068,20.45
					c1.023,6.135-2.045,11.247,0.511,17.382c2.556,6.135,7.157,45.501,10.736,54.192c2.342,5.689,4.257,16.177,7.73,24.048
					c-3.294,4.274-5.413,8.053-5.719,11.83c-0.605,7.465-5.448,27.237-6.255,30.263c-0.807,3.026-2.824,5.649-1.412,8.272
					c1.412,2.623,6.254,10.088,6.456,12.105c0.202,2.018-5.851,3.026-4.035,5.245c1.816,2.22,9.684,11.501,12.711,15.132
					c0.656,0.788,1.577,1.811,2.618,2.953h324.599C1554.313,1121.181,1554.256,1120.514,1554.207,1120.056z"/>
			</g>
		</g>
		<path style="fill:#272425;" d="M291.253,468.305c-1.216-4.054-4.865-2.838-4.865-2.838s-33.849,9.728-66.017,18.87
			c4.441-12.424,10.849-23.141,15.106-29.524c0.914,0.499,1.947,0.809,3.062,0.809c3.551,0,6.43-2.879,6.43-6.43
			c0-0.935-0.209-1.818-0.568-2.619c2.118-1.646,4.701-3.797,7.156-6.164c4.392-4.235-0.157-9.254,2.196-12.547
			c2.352-3.294,5.019-5.333,7.685-9.254c2.666-3.921,6.117-8.156,9.253-13.645c3.137-5.489,1.569-14.272,1.569-14.272
			c-2.039,9.724-6.744,13.488-6.744,13.488c2.666-2.98,5.176-14.272,5.176-14.272l-2.352-2.353
			c-4.078,2.666-12.39,22.271-11.606,19.605c0.784-2.666,3.764-10.508,5.49-12.704c1.725-2.196,4.548-8.312,4.548-8.312
			l-4.078-3.137l-2.98,4.705c0,0,1.725-4.862,1.098-5.96c-0.627-1.098-2.352-1.725-2.352-1.725s0.784-1.098-1.255,1.412
			c-2.039,2.509-3.607,13.018-3.607,13.018c-1.725-5.803,0.627-15.057,0.627-15.057c-2.196,4.862-3.294,9.567-2.98,15.057
			c0.314,5.489-4.705,14.429-4.705,14.429c-1.255,5.176-3.764,11.449-4.705,14.272c-0.941,2.823-0.47,5.489-0.314,7.528
			c0.157,2.039-0.157,3.294-1.882,6.117c-1.049,1.717-1.749,4.301-2.137,6.065c-3.054,0.5-5.391,3.13-5.391,6.326
			c0,2.261,1.172,4.241,2.937,5.387c-8.702,11.247-14.001,21.49-17.134,30.457c-23.037,6.543-44.74,12.647-51.922,14.484
			c-17.431,4.459-25.945,8.918-25.945,8.918c5.676,47.836,26.35,130.129,26.35,130.129c4.054-3.648,40.944-12.567,42.971-12.567
			c2.027,0,10.54,2.027,12.162,1.622c1.622-0.405,3.243,2.027,24.323-2.432c21.08-4.459,29.593-18.648,29.593-18.648
			c5.675-1.622,42.565-12.972,42.565-12.972S292.47,472.359,291.253,468.305z"/>
		<path style="fill:#272425;" d="M941.258,556.864c-4.815,1.138-5.331-2.534-5.331-2.534l7.977-10.763c0,0,15.69-1.127,21.784,0.992
			s5.056,0.213,5.056,0.213s-0.689-3.083-4.636-4.888c-3.947-1.805-6.436-6.379-9.065-9.395c-2.629-3.016-9.306-10.746-11.593-9.501
			c-2.287,1.244-19.02,5.903-23.247,7.215c-4.227,1.312-9.659-4.131-16.167-7.012c-6.508-2.881-34.168-16.485-36.729-17.561
			c-2.562-1.076-11.458-5.622-14.368-5.521c0,0-4.844,28.373-9.822,57.528c-8.831-13.831-16.011-32.386-10.583-52.353
			c4.935-18.152,5.706-28.944,4.536-36.091c0.139-0.069,0.281-0.126,0.418-0.201c6.316-3.437,8.649-11.343,5.213-17.658
			c-0.396-0.728-0.858-1.397-1.364-2.017c0.382-1.955,0.724-4.093,0.966-6.373c0.872-8.228-0.761-8.681-3.091-14.42
			c-2.331-5.739-2.846-8.143-5.002-11.741c-2.156-3.598-3.332-7.58-4.168-11.3c-0.835-3.72-2.706-6.43-4-9.9
			c-1.294-3.47-1.185-8.003-1.359-10.144c-0.175-2.142-0.85-5.203-1.33-7.178c-0.48-1.975-3.491-4.959-3.491-4.959
			s0.48,1.975,1.852,7.044c1.371,5.069-0.325,4.501-0.95,6.63c-0.625,2.129-0.478,4.584,0.531,7.166
			c1.009,2.582,2.801,19.349,2.244,15.776c-0.557-3.573-2.137-7.932-3.243-11.058c-1.106-3.125-1.254-8.86-1.138-12.651
			c0.117-3.791-2.256-10.7-3.521-11.204c-1.265-0.504-6.741,2.177-6.741,2.177s0.275,9.244-0.038,8.669
			c-0.313-0.575-1.553-7.952-1.553-7.952l-2.266,0.935c0,0-2.571,1.101-2.216,2.846c0.355,1.745,8.645,16.616,8.645,16.616
			l-0.91,1.241c-0.403-0.377-2.412-1.52-4.034-7.049c-1.622-5.529-6.892-10.116-6.892-10.116s1.683,2.364,3.666,7.1
			c1.983,4.736,0.426,5.881,1.783,9.467c0.978,2.585,4.341,6.721,6.149,8.835c-1.185-0.783-3.185-1.456-6.877-4.711
			c-5.333-4.702-4.959-10.571-4.959-10.571c-0.951,3.35-3.557,4.023,3.228,9.575c6.786,5.551,20.839,21.909,19.344,38.825
			c-0.272,3.083-0.363,5.696-0.335,7.927c-3.615,3.987-4.517,9.967-1.799,14.961c2.821,5.184,8.653,7.678,14.145,6.507
			c0.958,6.605,0.916,14.69-1.638,23.741c-6.371,22.581-7.342,38.887,10.52,65.129c-3.414,19.989-6.852,40.121-8.801,51.52
			c-4.843,28.326,1.111,32.003,6.683,35.888c5.572,3.885,52.886,35.449,67.225,34.563l5.857-38.265c0,0,11.918-3.521,18.644-11.134
			c6.726-7.613,14.182-16.61,17.338-20.798c3.156-4.188,10.611-13.185,13.386-17.165c2.775-3.98,7.685-30.366,8.727-33.898
			c1.042-3.531,2.741-4.95,2.741-4.95S946.073,555.726,941.258,556.864z"/>
		<path style="fill:#272425;" d="M571.805,343.645c-2.313-26.98-1.542-30.834-1.542-30.834s-13.49-5.396-19.657-4.625
			c0,0-9.25-36.23-10.406-40.855c-1.156-4.625-3.083-7.323-3.854-2.313c0,0-34.335,16.445-63.502,31.195
			c-21.17-23.294-12.422-37.59-6.364-43.48c0.732,0.977,1.888,1.619,3.203,1.619c2.216,0,4.013-1.797,4.013-4.013
			c0-0.151-0.028-0.295-0.045-0.441c2.068-1.972,4.847-4.493,7.581-5.589c4.352-1.745,14.231-17.202,12.585-16.33
			c-1.647,0.873-3.293,3.989-3.411,4.488c-0.118,0.499-12.232,9.474-12.232,9.474s1.646-1.496,3.058-3.116
			c1.411-1.62,2.352-3.366,2.94-4.986c0.588-1.62,3.881-3.989,5.881-5.111c1.999-1.122,1.882-4.861,1.882-4.861
			c-0.588,0.249-3.293,2.119-4.469,3.241c-1.176,1.122-2.823,2.867-3.528,3.615c-0.706,0.748-3.293,2.119-3.293,2.119
			c1.529-1.371,1.294-1.62,4.469-5.36c3.175-3.74,5.057-3.989,4.94-4.363c-0.117-0.374-2.235-3.49-2.235-3.49
			s-2.823,0.125-3.881,0.748c-1.059,0.623-1.059,3.116-2.117,4.737c-1.059,1.62-4.822,6.482-4.822,6.482
			c0.118-0.873-0.941-3.366,0.706-4.114c1.647-0.748,3.881-7.105,3.881-7.105s-4.704,5.485-5.88,7.355
			c-1.176,1.87-1.529,5.111-1.999,7.978c-0.471,2.867-1.999,5.609-3.881,7.729c-0.796,0.896-1.244,2.075-1.509,3.146
			c-1.539,0.561-2.645,2.024-2.645,3.758c0,0.395,0.075,0.77,0.182,1.13c-7.235,4.413-8.036,13.912-8.689,20.111
			c-0.411,3.906,6.246,14.719,13.892,25.539c-19.999,10.141-37.144,19.295-38.388,21.474c-3.084,5.396-0.771,6.938-0.771,6.938
			l4.24,16.573c0,0,26.209,100.596,28.136,106.762c0,0,0.771,3.083,6.552-1.156c5.781-4.24,57.814-28.136,66.293-33.917
			c8.479-5.781,33.917-16.959,33.917-16.959l-3.083-13.49C567.951,383.344,574.117,370.625,571.805,343.645z"/>
		<path style="fill:#272425;" d="M1326.747,304.135c2.325-4.844,1.744-7.363,1.744-12.013s2.132-10.076,1.55-15.114
			c-0.581-5.038,2.131-20.927,2.131-20.927c-1.938,1.938-4.069,6.588-5.038,9.494c-0.969,2.906-2.519,8.332-1.938,12.789
			c0.581,4.457-2.519,18.408-2.519,18.408c1.744-6.782,0-11.626,0.194-15.889c0.194-4.263,0.969-13.757,2.519-17.439
			c1.55-3.682,3.488-7.169,3.488-7.169l-5.232-2.906c0,0-4.069,0.194-5.038,0.775c-0.969,0.581-1.744,5.232-1.938,7.751
			c-0.194,2.519-3.682,13.176-3.682,13.176s0.775-4.844,1.744-9.107c0.969-4.263,2.132-11.82,2.132-11.82s-3.488-1.163-3.294-0.581
			c0.194,0.581-3.488,7.945-3.875,11.626c-0.388,3.682-5.038,7.751-6.975,14.339c-1.938,6.588,0.581,24.221,0.581,24.221
			c-2.519-3.488-4.457-17.826-4.457-17.826c0.193,2.713-0.388,12.595,2.519,18.214s2.132,12.401,0.581,18.408
			c-0.955,3.701-0.953,9.308-0.811,13.072c-3.183,0.797-5.551,3.654-5.551,7.084c0,2.476,1.236,4.655,3.117,5.981
			c-0.027,0.059-0.042,0.109-0.07,0.168c-4.135,8.781-21.922,27.643-40.766,41.222c-13.533,9.751-23.52,26.176-28.754,35.753
			c-3.223-15.041-14.148-69.16-15.425-73.247l-28.484,9.01l4.069,4.36l3.488,20.927c0,0-31.099,3.488-34.006,4.36
			c-2.906,0.872-9.01,4.65-11.335,5.522c-2.325,0.872-19.764,12.498-17.148,13.37c2.616,0.872,7.557,3.488,8.138,4.36
			c0.581,0.872,0.291,10.463,2.325,15.114c2.035,4.65,3.197,14.533,4.36,18.311s4.65,10.754,5.813,12.789
			c1.163,2.035,5.522,9.591,6.104,12.498s3.778,11.917,3.488,15.404s-0.872,15.986,1.453,18.02c2.325,2.034,6.104,0.581,6.104,0.581
			l2.906,4.36c0,0,12.207-2.616,16.567-3.197c4.36-0.581,29.065-5.813,29.065-5.813s2.325,13.079,2.325,15.695
			c0,2.616-0.291,7.557-0.291,7.557l28.193-0.581c0,0,1.453-9.882,0-15.114c-1.383-4.979-14.604-70.725-16.63-79.572
			c2.199-4.955,5.807-12.794,13.142-22.445c11.045-14.532,25.577-24.414,34.297-30.227c8.031-5.354,21.479-24.998,23.552-28.066
			c0.557,0.135,1.131,0.227,1.729,0.227c3.877,0,7.018-3.021,7.276-6.833c3.12-3.178,7.124-7.83,7.262-9.216
			c0.194-1.938,1.55-10.657,3.294-15.889c1.744-5.232,20.539-24.608,20.539-24.608
			C1333.917,296.772,1324.422,308.979,1326.747,304.135z"/>
		<path style="fill:#272425;" d="M1423.411,531.115l-11.419-26.277l-90.983,47.772c0,0,17.759,40.694,27.442,62.963
			c-5.821,9.7-9.301,20.911-6.385,32.553c6.33,25.27,12.442,49.474,14.269,62.26c-1.495,0.373-2.913,1.137-4.079,2.31
			c-2.958,2.976-3.329,7.544-1.131,10.925c-1.177,6.049-1.713,16.903,6.286,25.118c11.453,11.762,33.936,21.207,43.489,33.736
			c9.553,12.529,20.045,21.06,23.666,22.761c0,0-14.324-16.891-18.525-21.825c0,0,18.327,19.352,25.165,15.526l4.166-6.483
			c0,0-9.915-6.439-16.779-10.984c0,0,13.528,5.857,18.48,7.364l3.972-7.814c0,0-1.565-5.482-10.237-9.413
			c-1.413-0.641-3.016-1.24-4.831-1.767c-12.951-3.766-25.518-6.391-28.952-9.424c0,0,28.938,4.858,36.944,9.4
			c0,0-16.592-11.937-28.396-14.184c-11.805-2.247-19.436-8.693-20.963-10.21c-1.527-1.517-5.36-10.259-8.986-13.863
			c-2.261-2.247-5.86-6.414-8.943-9.737c1.111-3.096,0.431-6.69-2.057-9.162c-1.71-1.699-3.946-2.545-6.18-2.542
			c-0.181-1.466-0.484-2.922-0.976-4.191c-1.918-4.941-13.899-64.273-12.026-73.793c0.752-3.823,2.648-7.924,5.03-11.91
			c1.055,2.43,1.959,4.515,2.641,6.091c6.464,14.955,19.391,44.436,19.821,45.29c0.431,0.854,17.093-6.899,25.423-10.989
			c8.33-4.09,66.004-31.651,66.004-31.651l-9.268-22.433c0,0,6.587-14.353,4.19-28.678c-2.397-14.326-17.247-43.159-22.605-46.351
			L1423.411,531.115z"/>
		<g>
			<path style="fill:#272425;" d="M837.673,297.617c-3.745-3.309-5.764-5.233-5.764-5.233
				C832.498,293.395,834.594,295.242,837.673,297.617z"/>
			<path style="fill:#272425;" d="M1007.999,480.684c-0.046-0.023-0.101-0.042-0.158-0.061
				C1007.941,480.667,1007.999,480.684,1007.999,480.684z"/>
			<path style="fill:#272425;" d="M1004.901,472.165c0.516-7.486-4.475-10.928-7.057-12.649c-2.581-1.721-15.747-11.703-16.78-13.51
				c-0.759-1.329-7.882-4.471-11.708-6.931c0.6-1.359,0.94-2.859,0.94-4.44c0-4.963-3.286-9.157-7.801-10.531
				c0.019-1.072-0.029-2.199-0.167-3.398c-1.597-13.906-13.308-32.546-26.107-41.552c-13.495-9.497-11.538-17.475-10.667-19.622
				c3.602,1.984,7.273,3.94,11.009,5.855c60.752,31.142,92.915,39.821,92.915,39.821l-47.99-23.484l-2.552-16.337l25.016-46.458
				l-25.016-16.337l-10.211,8.679l0.51-13.273c0,0-25.015-22.463-51.052-17.869c0,0-25.526,39.821-23.995,55.137
				c0,0-40.933-25.628-56.519-37.651c12.33,10.896,43.525,36.934,84.171,59.838c-1.119,2.474-3.618,11.529,12.836,23.108
				c12.954,9.116,23.314,29.853,24.608,41.121c0.08,0.696,0.073,1.333,0.031,1.944c-0.01,0-0.021-0.001-0.021-0.001
				c-6.09,0-11.019,4.928-11.019,11.009c0,3.747,1.875,7.052,4.735,9.04c0.582,2.557,1.738,5.429,3.956,8.268
				c6.454,8.261,17.813,18.328,24.094,25.557c6.282,7.228,2.065,12.649,0.172,16.436c0,0,2.84-2.323,3.786-6.626
				c0.947-4.302-0.516-10.842-0.774-10.842c0,0,5.163,5.765,3.442,14.112c-1.721,8.347,0.086,5.421,2.065,8.949
				c0,0-2.324-4.475-1.033-7.659c1.291-3.184,1.549-10.412,0.172-14.112c-1.377-3.7-3.27-9.035-3.356-9.294
				c-0.086-0.258,12.736,6.712,13.94,15.145c1.205,8.433,3.786,9.379,5.163,10.412c0,0-5.163-11.961-5.077-17.296
				c0.086-5.335-1.033-8.089-4.216-11.272c0,0,7.228,1.291,8.089,8.347c0.814,6.677,3.398,6.498,4.403,6.823
				C1007.152,480.32,1004.45,478.707,1004.901,472.165z"/>
		</g>
	</g>
</g>
</svg>
